<svg xmlns="http://www.w3.org/2000/svg" width="1320" height="360" fill="none" viewBox="0 0 1320 360"><g clip-path="url(#a)"><path fill="#194D05" d="M0 0h1320v360H0z"/><path stroke="#BCEC79" vector-effect="non-scaling-stroke" stroke-width="1" d="M0 453h50c22.091 0 40-17.909 40-40V179c0-22.091-17.909-40-40-40H0M263 360c0-16.569 13.431-30 30-30h96c16.569 0 30 13.431 30 30M891 368v-27c0-22.091 17.909-40 40-40h260c22.09 0 40 17.909 40 40v27M1320 207.5h-39.29c-32.15 0-58.21-17.909-58.21-40v-260c0-22.09 26.06-40 58.21-40H1320"/></g><defs><clipPath id="a"><path fill="#fff" d="M0 0h1320v360H0z"/></clipPath></defs></svg>
