<svg width="1320" height="360" fill="none" xmlns="http://www.w3.org/2000/svg"><g clip-path="url(#a)"><path fill="#194D05" d="M0 0h1320v360H0z"/><path d="M891 360v-27c0-22.091 17.909-40 40-40h260c22.09 0 40 17.909 40 40v27M1230 0v178c0 22.091 17.91 40 40 40h50" stroke="#BCEC79" stroke-width="1.5"/><path d="M0 473h50c22.091 0 40-17.909 40-40V199c0-22.091-17.909-40-40-40H0" stroke="#BCEC79"/><path d="M263 360c0-16.569 13.431-30 30-30h96c16.569 0 30 13.431 30 30" stroke="#BCEC79" stroke-width="1.5"/></g><defs><clipPath id="a"><path fill="#fff" d="M0 0h1320v360H0z"/></clipPath></defs></svg>