<svg xmlns="http://www.w3.org/2000/svg" width="1320" height="360" fill="none" viewBox="0 0 1320 360"><g clip-path="url(#a)"><mask id="b" width="1320" height="360" x="0" y="0" maskUnits="userSpaceOnUse" style="mask-type:luminance"><path fill="#fff" d="M0 0h1320v360H0V0Z"/></mask><g mask="url(#b)"><path fill="#194D05" d="M0 0h1320v360H0V0Z"/><path stroke="#BCEC79" vector-effect="non-scaling-stroke" stroke-width="1" d="M891 360v-27c0-22.091 17.909-40 40-40h260c22.09 0 40 17.909 40 40v27m-1-360v178c0 22.091 17.91 40 40 40h50M0 473h50c22.091 0 40-17.909 40-40V199c0-22.091-17.909-40-40-40H0M263 360c0-16.569 13.431-30 30-30h96c16.569 0 30 13.431 30 30"/></g></g><defs><clipPath id="a"><path fill="#fff" d="M0 0h1320v360H0z"/></clipPath></defs></svg>