<svg width="212" height="34" viewBox="0 0 212 34" fill="none" xmlns="http://www.w3.org/2000/svg">
<path fill-rule="evenodd" clip-rule="evenodd" d="M19.3739 33.824C16.9095 33.824 14.7288 32.2329 13.9837 29.8911L10.1531 17.8516H7.79792C5.33349 17.8516 3.15287 16.2605 2.40776 13.9187L0.131592 6.76481L8.6692 6.7648L4.16615 0H46.8331L42.33 6.7648L50.8676 6.76481L48.5915 13.9187C47.8464 16.2605 45.6657 17.8516 43.2013 17.8516H40.8462L37.0155 29.8911C36.2704 32.2329 34.0897 33.824 31.6253 33.824H19.3739ZM16.4799 14.5631C16.4799 16.3793 17.84 17.8516 19.5178 17.8516C21.1957 17.8516 22.5558 16.3793 22.5558 14.5631C22.5558 12.747 21.1957 11.2747 19.5178 11.2747C17.84 11.2747 16.4799 12.747 16.4799 14.5631ZM34.5194 14.5631C34.5194 16.3793 33.1592 17.8516 31.4814 17.8516C29.8036 17.8516 28.4435 16.3793 28.4435 14.5631C28.4435 12.747 29.8036 11.2747 31.4814 11.2747C33.1592 11.2747 34.5194 12.747 34.5194 14.5631Z" fill="#BCEC79"/>
<path d="M211.047 27.9412H206.933V16.5172C206.933 16.1225 206.933 15.7082 206.933 15.2741C206.933 14.8203 206.933 14.3665 206.933 13.9127V12.0777H206.904C206.884 12.1961 206.855 12.3145 206.815 12.4329C206.795 12.5513 206.766 12.6598 206.726 12.7585C206.549 13.4688 206.351 14.1396 206.134 14.771C205.917 15.3826 205.71 15.9647 205.513 16.5172L201.458 27.9412L197.285 27.9412L193.231 16.5172C193.073 16.1225 192.925 15.7279 192.787 15.3333C192.668 14.919 192.54 14.4948 192.402 14.0607C192.303 13.7647 192.214 13.4688 192.135 13.1728C192.057 12.8571 191.978 12.5414 191.899 12.2257H191.869C191.869 12.3441 191.869 12.4724 191.869 12.6105C191.869 12.7289 191.869 12.8571 191.869 12.9952V16.5172V27.9412H187.755V6.63208L193.793 6.63208L197.463 16.8427C197.621 17.2965 197.778 17.7799 197.936 18.2929C198.114 18.7862 198.282 19.2794 198.439 19.7727C198.597 20.2857 198.755 20.7888 198.913 21.2821C199.071 21.7754 199.219 22.2588 199.357 22.7323H199.386C199.544 22.2588 199.692 21.7754 199.83 21.2821C199.988 20.7691 200.146 20.2561 200.304 19.7431C200.462 19.2301 200.62 18.7369 200.777 18.2633C200.935 17.7701 201.093 17.2965 201.251 16.8427L204.951 6.63208L211.047 6.63208V27.9412Z" fill="#BCEC79"/>
<path d="M183.386 27.9412H179.272V16.5172C179.272 16.1225 179.272 15.7082 179.272 15.2741C179.272 14.8203 179.272 14.3665 179.272 13.9127V12.0777H179.243C179.223 12.1961 179.193 12.3145 179.154 12.4329C179.134 12.5513 179.104 12.6598 179.065 12.7585C178.887 13.4688 178.69 14.1396 178.473 14.771C178.256 15.3826 178.049 15.9647 177.852 16.5172L173.797 27.9412L169.624 27.9412L165.569 16.5172C165.411 16.1225 165.263 15.7279 165.125 15.3333C165.007 14.919 164.879 14.4948 164.741 14.0607C164.642 13.7647 164.553 13.4688 164.474 13.1728C164.395 12.8571 164.316 12.5414 164.237 12.2257H164.208C164.208 12.3441 164.208 12.4724 164.208 12.6105C164.208 12.7289 164.208 12.8571 164.208 12.9952V16.5172V27.9412H160.094V6.63208L166.132 6.63208L169.801 16.8427C169.959 17.2965 170.117 17.7799 170.275 18.2929C170.453 18.7862 170.62 19.2794 170.778 19.7727C170.936 20.2857 171.094 20.7888 171.252 21.2821C171.409 21.7754 171.557 22.2588 171.696 22.7323H171.725C171.883 22.2588 172.031 21.7754 172.169 21.2821C172.327 20.7691 172.485 20.2561 172.643 19.7431C172.8 19.2301 172.958 18.7369 173.116 18.2633C173.274 17.7701 173.432 17.2965 173.59 16.8427L177.289 6.63208L183.386 6.63208V27.9412Z" fill="#BCEC79"/>
<path d="M140.99 22.5843V18.796H152.236V22.5843H140.99ZM153.154 27.9412L149.01 17.1979C148.833 16.7243 148.655 16.2705 148.477 15.8364C148.3 15.3826 148.132 14.9387 147.974 14.5046C147.836 14.0903 147.688 13.6759 147.53 13.2616C147.392 12.8472 147.254 12.4329 147.116 12.0186H147.086C147.008 12.2751 146.919 12.5316 146.82 12.7881C146.741 13.0446 146.662 13.3011 146.583 13.5576C146.386 14.1495 146.169 14.7414 145.932 15.3333C145.715 15.9252 145.478 16.5468 145.222 17.1979L141.078 27.9412H136.639L144.896 6.63208L149.336 6.63208L157.593 27.9412H153.154Z" fill="#BCEC79"/>
<path d="M127.354 6.63208L121.523 27.9412H117.291L114.361 16.9907C114.282 16.675 114.193 16.3396 114.095 15.9844C114.016 15.6293 113.927 15.2643 113.828 14.8894C113.75 14.5342 113.671 14.1791 113.592 13.8239C113.513 13.4688 113.434 13.1333 113.355 12.8176H113.325C113.246 13.1136 113.158 13.4392 113.059 13.7943C112.98 14.1297 112.901 14.475 112.822 14.8302C112.724 15.2051 112.625 15.5799 112.526 15.9548C112.447 16.31 112.359 16.6553 112.26 16.9907L109.33 27.9412H105.098L99.2672 6.63208L103.47 6.63208L106.37 17.5826C106.449 17.8786 106.528 18.1943 106.607 18.5297C106.686 18.8651 106.765 19.2104 106.844 19.5655C106.923 19.9207 107.002 20.266 107.081 20.6014C107.159 20.9368 107.219 21.2624 107.258 21.5781H107.288C107.367 21.2229 107.455 20.848 107.554 20.4534C107.653 20.0391 107.751 19.6149 107.85 19.1808C107.929 18.9046 107.998 18.6382 108.057 18.3817C108.136 18.1055 108.205 17.8391 108.264 17.5826L111.194 6.63208L115.427 6.63208L118.386 17.5826C118.445 17.7996 118.505 18.0266 118.564 18.2633C118.623 18.5001 118.682 18.7369 118.741 18.9736C118.919 19.6839 119.126 20.5521 119.363 21.5781H119.393C119.432 21.3808 119.471 21.1835 119.511 20.9862C119.55 20.7691 119.6 20.5422 119.659 20.3054C119.856 19.3584 120.063 18.4508 120.28 17.5826L123.151 6.63208L127.354 6.63208Z" fill="#BCEC79"/>
<path d="M91.9546 28.1189C90.5735 28.1189 89.3009 27.7736 88.1367 27.083C86.9726 26.3727 86.0453 25.4256 85.3547 24.2418C84.6839 23.0382 84.3484 21.7261 84.3484 20.3055C84.3484 18.8849 84.6839 17.5827 85.3547 16.3989C86.0453 15.1953 86.9726 14.2482 88.1367 13.5576C89.3009 12.8473 90.5735 12.4922 91.9546 12.4922H91.9842C93.3654 12.4922 94.6281 12.8473 95.7725 13.5576C96.9366 14.2482 97.8541 15.1953 98.5249 16.3989C99.2155 17.6024 99.5608 18.9047 99.5608 20.3055C99.5608 21.7064 99.2155 23.0086 98.5249 24.2122C97.8541 25.4158 96.9366 26.3727 95.7725 27.083C94.6281 27.7736 93.3654 28.1189 91.9842 28.1189H91.9546ZM91.9842 24.0346C92.6156 24.0346 93.1977 23.8669 93.7304 23.5315C94.2631 23.1961 94.6775 22.7521 94.9734 22.1997C95.2891 21.6275 95.447 20.9961 95.447 20.3055C95.447 19.6347 95.2891 19.0132 94.9734 18.441C94.6577 17.8688 94.2335 17.415 93.7008 17.0796C93.1681 16.7441 92.5959 16.5764 91.9842 16.5764H91.9546C91.3035 16.5764 90.7116 16.7441 90.1789 17.0796C89.6461 17.415 89.2219 17.8688 88.9062 18.441C88.5905 19.0132 88.4327 19.6347 88.4327 20.3055C88.4327 20.9764 88.5905 21.5979 88.9062 22.1701C89.2219 22.7423 89.6461 23.1961 90.1789 23.5315C90.7116 23.8669 91.3035 24.0346 91.9546 24.0346H91.9842Z" fill="#BCEC79"/>
<path d="M72.6614 28.1172C70.7081 28.1172 68.9027 27.6338 67.2454 26.667C65.6077 25.6804 64.2956 24.3585 63.3091 22.7011C62.3423 21.0437 61.8589 19.2384 61.8589 17.285C61.8589 15.3317 62.3423 13.5263 63.3091 11.869C64.2956 10.2116 65.6077 8.89949 67.2454 7.93268C68.9027 6.94615 70.7081 6.45288 72.6614 6.45288C74.3977 6.45288 75.9466 6.84749 77.308 7.63672C78.6694 8.40622 79.7546 9.39275 80.5636 10.5963C81.3923 11.7999 81.9151 13.0331 82.1322 14.2958H77.8703C77.6928 13.5855 77.3376 12.9443 76.8049 12.3721C76.2721 11.7999 75.6408 11.356 74.9107 11.0403C74.1807 10.7048 73.4309 10.5371 72.6614 10.5371C71.4381 10.5371 70.3135 10.843 69.2875 11.4546C68.2812 12.0663 67.4723 12.8851 66.8606 13.9111C66.249 14.9371 65.9431 16.0617 65.9431 17.285C65.9431 18.5083 66.249 19.633 66.8606 20.659C67.4723 21.685 68.2812 22.5038 69.2875 23.1154C70.3135 23.7271 71.4381 24.0329 72.6614 24.0329C73.8847 24.0329 74.9798 23.7074 75.9466 23.0563C76.9134 22.4051 77.5744 21.5173 77.9295 20.3926L82.1618 20.3926C81.9447 21.754 81.4219 23.0267 80.5932 24.2105C79.7645 25.3746 78.6596 26.3217 77.2784 27.0517C75.917 27.762 74.378 28.1172 72.6614 28.1172Z" fill="#BCEC79"/>
</svg>
