<?xml version="1.0" encoding="UTF-8"?>
<svg id="Layer_2" xmlns="http://www.w3.org/2000/svg" viewBox="0 0 355.65 40">
  <defs>
    <style>
      .cls-1 {
        fill: #383d48;
      }

      .cls-2 {
        fill: #e6d2bf;
      }
    </style>
  </defs>
  <g id="copy">
    <g>
      <g>
        <path class="cls-1" d="M.02,8.1h11.15c5.52.01,8.89,2.89,8.88,7.56,0,3.1-1.38,5.32-4.03,6.43,2.95.96,4.44,3.18,4.44,6.44,0,4.79-3.34,7.58-9.13,7.58H0S.02,8.1.02,8.1ZM4.91,24.19v7.59s6.24,0,6.24,0c2.76,0,4.29-1.34,4.29-3.87,0-2.38-1.57-3.72-4.29-3.72h-6.25ZM4.92,12.43v7.62s5.93,0,5.93,0c2.68,0,4.18-1.41,4.18-3.9,0-2.41-1.53-3.72-4.29-3.72h-5.82Z"/>
        <path class="cls-1" d="M20.54,30.72c0-3.49,2.53-5.67,7.02-6.01l5.67-.42v-.42c0-2.57-1.53-3.6-3.9-3.6-2.76,0-4.29,1.15-4.29,3.14h-3.98c0-4.1,3.38-6.78,8.51-6.78,5.1,0,8.24,2.77,8.23,8.01v11.49s-4.11,0-4.11,0l-.34-2.8c-.81,1.95-3.37,3.29-6.32,3.29-4.02,0-6.47-2.34-6.47-5.91ZM33.26,28.47v-1s-3.95.3-3.95.3c-2.91.27-4.02,1.22-4.03,2.76,0,1.72,1.15,2.57,3.25,2.57,2.87,0,4.71-1.72,4.72-4.63Z"/>
        <path class="cls-1" d="M39.58,36.14l.02-28.51h4.64s-.02,28.51-.02,28.51h-4.64Z"/>
        <path class="cls-1" d="M45.41,30.74c0-3.49,2.53-5.67,7.02-6.01l5.67-.42v-.42c0-2.57-1.53-3.6-3.9-3.6-2.76,0-4.29,1.15-4.29,3.14h-3.98c0-4.1,3.38-6.78,8.51-6.78,5.1,0,8.24,2.77,8.23,8.01v11.49s-4.11,0-4.11,0l-.34-2.8c-.81,1.95-3.37,3.29-6.32,3.29-4.02,0-6.47-2.34-6.47-5.91ZM58.13,28.49v-1s-3.95.3-3.95.3c-2.91.27-4.02,1.22-4.03,2.76,0,1.72,1.15,2.57,3.25,2.57,2.87,0,4.71-1.72,4.72-4.63Z"/>
        <path class="cls-1" d="M64.37,36.16l.02-18.93h4.33s.38,2.46.38,2.46c1.19-1.91,3.49-3.02,6.06-3.02,4.75,0,7.2,2.96,7.2,7.86v11.65s-4.68,0-4.68,0v-10.54c.01-3.18-1.56-4.71-3.97-4.72-2.87,0-4.64,1.99-4.64,5.05v10.19s-4.68,0-4.68,0Z"/>
        <path class="cls-1" d="M92.43,16.68c5.17,0,8.69,2.88,9.19,7.44h-4.67c-.53-2.15-2.1-3.26-4.33-3.26-2.99,0-4.98,2.26-4.99,5.82,0,3.56,1.83,5.79,4.82,5.79,2.34,0,3.99-1.15,4.49-3.21h4.71c-.58,4.41-4.26,7.43-9.2,7.43-5.75,0-9.5-3.99-9.49-10.01,0-5.86,3.88-10,9.47-9.99Z"/>
        <path class="cls-1" d="M101.16,26.72c0-5.94,3.88-10.04,9.43-10.03,5.67,0,9.27,3.8,9.26,9.7v1.42s-14.25.03-14.25.03c.34,3.33,2.1,5.02,5.21,5.02,2.57,0,4.25-.99,4.79-2.79h4.33c-.81,4.14-4.26,6.63-9.2,6.62-5.63,0-9.58-4.11-9.57-9.97ZM105.72,24.85h9.5c0-2.6-1.8-4.32-4.59-4.33-2.76,0-4.45,1.49-4.91,4.33Z"/>
        <path class="cls-1" d="M132.62,21.54h-1.72c-3.37,0-5.48,1.79-5.48,5.47v9.2s-4.68,0-4.68,0l.02-18.89h4.41s.27,2.76.27,2.76c.81-1.88,2.61-3.14,5.14-3.14.65,0,1.3.08,2.07.27v4.33Z"/>
        <path class="cls-1" d="M138.38,8.21h5.21s6.12,16.14,6.12,16.14c.61,1.69,1.15,3.33,1.76,5.6.69-2.45,1.27-4.18,1.81-5.59l6.07-16.13h5.1s-10.44,28-10.44,28h-5.06s-10.55-28.02-10.55-28.02Z"/>
        <path class="cls-1" d="M168.44,22.37v-3.18s7.21-6.62,7.21-6.62h-11.65s0-4.34,0-4.34h17.78s0,3.92,0,3.92l-6.83,6.28c4.29.85,7.62,3.99,7.62,8.93,0,5.75-4.49,9.38-10.16,9.38-5.48,0-9.73-3.38-9.72-9.43h4.83c0,3.22,1.99,5.06,4.98,5.07,3.07,0,5.1-1.99,5.1-5.09,0-2.84-1.84-4.91-5.74-4.91h-3.41Z"/>
      </g>
      <path class="cls-1" d="M190.36,36.27V8.26h4.9v11.57h12.41v-11.57h4.9v28.01h-4.9v-11.88h-12.41v11.88h-4.9Z"/>
      <path class="cls-1" d="M251.77,36.27V7.76h4.64v17.51l7.36-7.93h5.86l-7.2,7.51,7.05,11.42h-5.36l-4.94-7.97-2.76,2.87v5.1h-4.64Z"/>
      <path class="cls-1" d="M269.17,30.86c0-3.49,2.53-5.67,7.01-6.02l5.67-.42v-.42c0-2.57-1.53-3.6-3.91-3.6-2.76,0-4.29,1.15-4.29,3.14h-3.98c0-4.1,3.37-6.78,8.51-6.78s8.24,2.76,8.24,8.01v11.5h-4.1l-.34-2.8c-.8,1.95-3.37,3.3-6.32,3.3-4.02,0-6.48-2.34-6.48-5.9ZM281.89,28.6v-1l-3.95.31c-2.91.27-4.02,1.23-4.02,2.76,0,1.72,1.15,2.57,3.26,2.57,2.87,0,4.71-1.72,4.71-4.64Z"/>
      <path class="cls-1" d="M289.63,36.27v-15.02h-3.64v-3.91h3.64v-5.9h4.67v5.9h3.68v3.91h-3.68v15.02h-4.67Z"/>
      <path class="cls-1" d="M298.03,36.27V7.76h4.71v12.03c1.19-1.84,3.41-3.03,6.13-3.03,4.67,0,7.13,2.95,7.13,7.86v11.65h-4.67v-10.54c0-3.18-1.57-4.71-3.95-4.71-2.95,0-4.67,2.07-4.67,4.9v10.35h-4.67Z"/>
      <path class="cls-1" d="M326.72,16.8c5.86,0,10.12,4.06,10.12,9.96s-4.25,9.96-10.12,9.96-10.12-4.06-10.12-9.96,4.25-9.96,10.12-9.96ZM326.72,32.55c3.22,0,5.44-2.34,5.44-5.79s-2.22-5.79-5.44-5.79-5.44,2.34-5.44,5.79,2.22,5.79,5.44,5.79Z"/>
      <path class="cls-1" d="M337.68,36.27v-18.93h4.33l.38,2.45c1.19-1.92,3.49-3.03,6.05-3.03,4.75,0,7.2,2.95,7.2,7.86v11.65h-4.67v-10.54c0-3.18-1.57-4.71-3.98-4.71-2.87,0-4.64,1.99-4.64,5.06v10.19h-4.67Z"/>
      <g>
        <path class="cls-1" d="M248.24,3.99c-5.11-5.12-12.02-5.32-16.82-.53-4,4-4.48,9.48-1.57,14.15-4.68-2.93-10.16-2.42-14.17,1.59-4.8,4.8-4.54,11.7.55,16.79,5.11,5.12,11.97,5.37,16.77.58,4.02-4.02,4.52-9.52,1.62-14.19,4.67,2.93,10.12,2.45,14.12-1.55,4.82-4.82,4.59-11.75-.5-16.84ZM246.2,17.99c-2.34,2.33-5.93,2.74-8.97,1.31h0c-1.49-.73-3.41-.4-4.74.93-1.26,1.27-1.62,3.08-1.03,4.54,0,0,0,0,0,.01,1.57,3.07,1.19,6.76-1.21,9.15-3.05,3.03-8.2,2.82-11.52-.48-3.31-3.3-3.52-8.43-.48-11.46,2.34-2.33,5.93-2.74,8.97-1.31h0c1.49.73,3.41.4,4.74-.93,1.26-1.27,1.62-3.08,1.03-4.53,0,0,0,0,0-.01-1.57-3.07-1.19-6.76,1.21-9.15,3.05-3.03,8.2-2.82,11.52.48,3.31,3.3,3.52,8.43.48,11.46Z"/>
        <path class="cls-2" d="M231.33,27.69h-14.19c.08,1.35.55,2.69,1.33,3.85.28.42.61.81.97,1.18h.01c2.91,2.91,7.44,3.12,10.09.49.5-.49.89-1.06,1.19-1.67.57-1.17.77-2.5.59-3.85Z"/>
        <path class="cls-2" d="M247.33,12.29h-14.19c.1.78.33,1.57.7,2.32,0,0,.07.15.09.2l.08.18c.14.37.22.76.26,1.14.06.55.03,1.11-.09,1.65-.03.14.1.27.24.24.85-.2,1.73-.17,2.57.08,0,0,.26.1.35.13.08.03.41.16.45.18,2.73,1.24,5.75.79,7.71-1.16.34-.34.64-.72.89-1.13.62-1.01.96-2.19.96-3.44,0-.14,0-.28-.01-.41Z"/>
      </g>
    </g>
  </g>
</svg>