<svg xmlns="http://www.w3.org/2000/svg" width="512" height="512" data-name="Слой
1"><path fill="#d80027" d="M256 512c141.38 0 256-114.63 256-256S397.38 0 256 0 0
114.63 0 256s114.62 256 256 256z"/><path fill="#ffda44" fill-rule="evenodd"
d="m302.22 141.66 2-26.74v-.15l-17.29 20.48L262 125.3l14.19 22.76-17.29 20.48
26.1-6.4 14.1 22.76L301 158l26.1-6.4zm-162.11 14.22 22.09 68h71.49L175.89
266l22.1 68-57.88-42.1L82.23 334l22.19-68-57.88-42.1H118zm217.78 112.5 8.7 25.46
26.79-.28-21.5 15.92 8.6 25.46-21.9-15.64-21.5 16.07 8-25.6-21.9-15.64 26.82-.43
7.89-25.6zm-58.2 58-14.59 22.49-25.88-6.87 16.9 21-14.51 22.47 25-9.67 16.9
20.76-1.51-26.79 25.1-9.67-26-7-1.4-26.72zm39.8-144.65 19.2 18.63
23.69-12.51-11.8 24.18 19.2 18.63-26.5-3.84-11.8 24-4.59-26.31-26.6-3.84
23.79-12.51z"/></svg>
