<svg xmlns="http://www.w3.org/2000/svg" width="512" height="512" data-name="Слой
1" viewBox="0 0 512.39 512"><path fill="#039" fill-rule="evenodd" d="M256.38
512c141.37 0 256-114.63 256-256S397.75 0 256.38 0 .38 114.63.38 256s114.62 256
256 256z"/><g fill="#fc0"><path d="M256.38 56.89 250 76.51h-20.64L246 88.6l-6.26
19.77 16.64-12.09L273 108.37l-6.24-19.77 16.64-12.09h-20.62zM262.78
417.84l-6.4-19.62-6.38 19.62h-20.64L246 429.93l-6.26 19.77 16.64-12.09L273
449.7l-6.26-19.77 16.64-12.09zM85.71 267l16.64 12-6.26-19.77
16.64-12.09H92.11l-6.4-19.62-6.4 19.62H58.69l16.64 12.09L69.07 279zM171
79.78l-6.4 19.63H144l16.64 12.23-6.26 19.62L171 119l16.64 12.23-6.26-19.62
16.65-12.23h-20.58zM108.61 142.22l-6.4 19.62H81.59l16.64 12.09-6.4 19.77
16.78-12.09 16.64 12.09-6.4-19.77 16.78-12.09H115zM115 332.51l-6.4-19.62-6.4
19.62H81.59l16.64 12.09-6.4 19.77 16.78-12.09 16.64 12.09-6.4-19.77
16.78-12.09zM177.44 395 171 375.33 164.64 395H144l16.64 12.23-6.24 19.57
16.6-12.23 16.64 12.23-6.26-19.62L198.06 395zM454.07
247.18h-20.62l-6.4-19.62-6.4 19.62H400l16.64 12.09-6.23 19.73 16.64-12 16.64
12-6.26-19.77zM341.71 79.78l-6.4 19.63h-20.62l16.64 12.23-6.26 19.62L341.71
119l16.64 12.23-6.26-19.62 16.64-12.23h-20.62zM393.91 173.93l-6.4 19.77
16.64-12.09 16.78 12.09-6.4-19.77 16.64-12.09h-20.62l-6.4-19.62-6.4
19.62h-20.62zM410.54 332.51l-6.4-19.62-6.4 19.62h-20.62l16.78 12.09-6.4 19.77
16.64-12.09 16.78 12.09-6.4-19.77 16.65-12.09zM348.11 395l-6.4-19.62-6.4
19.62h-20.62l16.64 12.23-6.26 19.62 16.64-12.23 16.64 12.23-6.26-19.62L368.73
395z"/></g></svg>
