<svg xmlns="http://www.w3.org/2000/svg" width="512" height="512" data-name="Слой
1" viewBox="0 0 512.01 512"><path fill="#f0f0f0" d="M256 512c141.38 0 256-114.63
256-256S397.39 0 256 0 0 114.63 0 256s114.63 256 256 256z"/><g
fill-rule="evenodd"><path fill="#0052b4" d="M411.87 52.92A255.67 255.67 0 0 0
322.8 8.83V142zM8.83 189.31a254.5 254.5 0 0 1 44.09-89.17L142
189.31zm450.27-89.17a255.29 255.29 0 0 1 44.09 89.17H370zM8.83 322.85H142l-89.07
89a255.56 255.56 0 0 1-44.1-89zm91.33 136.25a255.84 255.84 0 0 0 89.07
44.09V370.07zm0-406.18a255.18 255.18 0 0 1 89.07-44.09V142zm222.62 450.27a255.18
255.18 0 0 0 89.07-44.09l-89.07-89zm136.29-91.31-89.07-89h133.16a255 255 0 0
1-44.09 89z"/><path fill="#d80027" d="M509.84 222.59H289.4V2.14a262.86 262.86 0
0 0-66.79 0v220.44H2.17a258.81 258.81 0 0 0 0 66.85h220.44v220.44a262.86 262.86
0 0 0 66.79 0V289.43h220.44a258.73 258.73 0 0 0 0-66.84zm-187 100.26L437
437.05l15.05-16.5-97.8-97.7H322.8zM75 437.05l114.23-114.2v31.43l-97.8
97.85zm114.22-247.89L75 75 60 91.5l97.8 97.85h31.49zM437 75 322.8
189.16v-31.43l97.8-97.85z"/></g></svg>
