<svg xmlns="http://www.w3.org/2000/svg" fill="none" viewBox="0 0 32 32"><circle cx="16" cy="16" r="16" fill="url(#a)"/><path fill="#fff" d="M24.02 15.028a21.305 21.305 0 0 0-.633-.125 7.92 7.92 0 0 0-.324-1.462c2.85.458 4.692 1.188 4.692 2.009v.027c-.068 1.375-5.305 2.486-11.756 2.486-6.493 0-11.756-1.125-11.756-2.513v-.025c.038-.82 1.915-1.547 4.792-2a7.917 7.917 0 0 0-.327 1.46c-.254.046-.497.094-.73.143-.28.06-.56.127-.836.201-.27.073-.51.147-.721.22.408.144.928.287 1.557.422.213.046.436.09.668.132 1.945.353 4.513.573 7.353.573 2.887 0 5.492-.227 7.449-.59.197-.038.388-.076.572-.115.63-.135 1.15-.278 1.558-.421a13.107 13.107 0 0 0-1.558-.421Zm.837-3.913v-.02c0-.74-1.968-1.382-4.838-1.695a7.551 7.551 0 0 1 1.796 1.673l.11.023-.08.016c-1.462.301-3.502.496-5.792.496-2.295 0-4.34-.196-5.803-.498a7.75 7.75 0 0 1-.069-.014l.096-.02a7.55 7.55 0 0 1 1.796-1.674c-2.862.313-4.823.954-4.823 1.694 0 .925 4.262 1.661 7.135 1.864.643.046 1.649.05 1.649.05.355.015 1.002-.003 1.643-.048 2.888-.199 7.137-.926 7.18-1.847ZM7.25 20.701c0-.484.84-.926 2.223-1.261.219.44.479.857.777 1.247l-.069.014.095.02.006.008h.032c1.458.294 3.477.485 5.74.485 2.261 0 4.28-.19 5.739-.485h.019l.004-.005a8.13 8.13 0 0 0 .11-.023l-.08-.017c.298-.39.558-.807.777-1.247 1.39.336 2.234.778 2.234 1.264l-.001.028c-.068 1.036-3.983 1.871-8.803 1.871s-8.734-.835-8.802-1.871L7.25 20.7Z"/><defs><linearGradient id="a" x1="6.75" x2="27.25" y1="27.75" y2="5.25" gradientUnits="userSpaceOnUse"><stop stop-color="#9C4ED6"/><stop offset="1" stop-color="#5D25C6"/></linearGradient></defs></svg>