<svg xmlns="http://www.w3.org/2000/svg" width="256" height="256" fill="none" viewBox="0 0 32 32">
  <circle cx="16" cy="16" r="16" fill="#fff"/>
  <path fill="#2D3239" d="M20.762 17.867c3.18.587 5.344 1.742 5.344 3.072 0 1.924-4.525 3.482-10.105 3.482S5.896 22.862 5.896 20.939c0-1.33 2.164-2.485 5.343-3.072 1.382.359 3.014.565 4.762.565 1.747 0 3.38-.206 4.761-.564v-.001Zm-1.218-5.64c2.702.45 4.563 1.396 4.563 2.491 0 1.529-3.63 2.768-8.106 2.768-4.477 0-8.106-1.24-8.106-2.768 0-1.095 1.86-2.041 4.562-2.49 1.038.263 2.25.414 3.544.414s2.505-.152 3.543-.415ZM16.038 7.58c3.352 0 6.07.938 6.07 2.096 0 1.157-2.718 2.095-6.07 2.095-3.353 0-6.07-.938-6.07-2.095 0-1.158 2.717-2.096 6.07-2.096Z"/>
</svg>