<svg width="1320" height="143" viewBox="0 0 1320 143" fill="none" xmlns="http://www.w3.org/2000/svg">
<path d="M0 12C0 5.37258 5.37258 0 12 0H1308C1314.63 0 1320 5.37258 1320 12V131C1320 137.627 1314.63 143 1308 143H12C5.37257 143 0 137.627 0 131V12Z" fill="#194D05"/>
<path d="M138 0V39C138 61.0914 155.909 79 178 79H285C307.091 79 325 61.0914 325 39V0" stroke="#BCEC79" stroke-width="1.5"/>
<path d="M987 143V70C987 47.9086 1004.91 30 1027 30H1117C1139.09 30 1157 47.9086 1157 70V143" stroke="#BCEC79" stroke-width="1.5"/>
<path d="M1320 113L1241 113C1218.91 113 1201 95.0914 1201 73L1201 70C1201 47.9086 1218.91 30 1241 30L1320 30" stroke="#BCEC79" stroke-width="1.5"/>
<path d="M83 143V143C83 124.222 98.2223 109 117 109H163C181.778 109 197 124.222 197 143V143" stroke="#BCEC79" stroke-width="1.5"/>
<path d="M0 19L19 19C41.0914 19 59 36.9086 59 59L59 84C59 106.091 41.0914 124 19 124L-4.5897e-06 124" stroke="#BCEC79"/>
<path d="M822.569 86.9612H816.624V70.4537C816.624 69.8835 816.624 69.2847 816.624 68.6575C816.624 68.0018 816.624 67.346 816.624 66.6903V64.0388H816.582C816.553 64.2099 816.51 64.3809 816.453 64.552C816.425 64.7231 816.382 64.8799 816.325 65.0224C816.068 66.0488 815.783 67.0182 815.47 67.9305C815.156 68.8143 814.857 69.6554 814.572 70.4537L808.713 86.9612H802.683L796.824 70.4537C796.596 69.8835 796.382 69.3132 796.182 68.743C796.011 68.1443 795.826 67.5313 795.626 66.9041C795.484 66.4765 795.355 66.0488 795.241 65.6211C795.127 65.165 795.013 64.7088 794.899 64.2526H794.857C794.857 64.4237 794.857 64.609 794.857 64.8086C794.857 64.9797 794.857 65.165 794.857 65.3646V70.4537V86.9612H788.912V56.1699H797.636L802.939 70.9241C803.167 71.5798 803.395 72.2783 803.624 73.0196C803.88 73.7324 804.122 74.4451 804.351 75.1579C804.579 75.8992 804.807 76.6262 805.035 77.3389C805.263 78.0517 805.477 78.7502 805.676 79.4345H805.719C805.947 78.7502 806.161 78.0517 806.361 77.3389C806.589 76.5977 806.817 75.8564 807.045 75.1151C807.273 74.3739 807.501 73.6611 807.729 72.9768C807.957 72.2641 808.185 71.5798 808.413 70.9241L813.759 56.1699H822.569V86.9612Z" fill="#BCEC79"/>
<path d="M782.598 86.9612H776.654V70.4537C776.654 69.8835 776.654 69.2847 776.654 68.6575C776.654 68.0018 776.654 67.346 776.654 66.6903V64.0388H776.611C776.582 64.2099 776.54 64.3809 776.483 64.552C776.454 64.7231 776.411 64.8799 776.354 65.0224C776.098 66.0488 775.813 67.0182 775.499 67.9305C775.185 68.8143 774.886 69.6554 774.601 70.4537L768.742 86.9612H762.712L756.853 70.4537C756.625 69.8835 756.411 69.3132 756.212 68.743C756.041 68.1443 755.855 67.5313 755.656 66.9041C755.513 66.4765 755.385 66.0488 755.271 65.6211C755.157 65.165 755.043 64.7088 754.929 64.2526H754.886C754.886 64.4237 754.886 64.609 754.886 64.8086C754.886 64.9797 754.886 65.165 754.886 65.3646V70.4537V86.9612H748.941V56.1699H757.666L762.969 70.9241C763.197 71.5798 763.425 72.2783 763.653 73.0196C763.909 73.7324 764.152 74.4451 764.38 75.1579C764.608 75.8992 764.836 76.6262 765.064 77.3389C765.292 78.0517 765.506 78.7502 765.706 79.4345H765.748C765.976 78.7502 766.19 78.0517 766.39 77.3389C766.618 76.5977 766.846 75.8564 767.074 75.1151C767.302 74.3739 767.53 73.6611 767.758 72.9768C767.986 72.2641 768.214 71.5798 768.443 70.9241L773.788 56.1699H782.598V86.9612Z" fill="#BCEC79"/>
<path d="M721.337 79.2206V73.7466H737.588V79.2206H721.337ZM738.914 86.9612L732.927 71.4373C732.67 70.753 732.414 70.0973 732.157 69.4701C731.9 68.8143 731.658 68.1728 731.43 67.5456C731.23 66.9469 731.017 66.3482 730.789 65.7494C730.589 65.1507 730.389 64.552 730.19 63.9533H730.147C730.033 64.3239 729.905 64.6946 729.762 65.0652C729.648 65.4358 729.534 65.8065 729.42 66.1771C729.135 67.0324 728.821 67.8877 728.479 68.743C728.166 69.5984 727.823 70.4964 727.453 71.4373L721.466 86.9612H715.051L726.982 56.1699H733.397L745.329 86.9612H738.914Z" fill="#BCEC79"/>
<path d="M701.633 56.1699L693.209 86.9612H687.093L682.859 71.1379C682.745 70.6818 682.617 70.1971 682.474 69.6839C682.36 69.1707 682.232 68.6433 682.09 68.1016C681.976 67.5884 681.861 67.0752 681.747 66.562C681.633 66.0488 681.519 65.5641 681.405 65.108H681.363C681.249 65.5356 681.12 66.006 680.978 66.5192C680.864 67.0039 680.75 67.5028 680.636 68.016C680.493 68.5577 680.35 69.0994 680.208 69.6411C680.094 70.1543 679.966 70.6532 679.823 71.1379L675.589 86.9612H669.474L661.049 56.1699H667.122L671.313 71.9932C671.427 72.4209 671.541 72.8771 671.655 73.3617C671.769 73.8464 671.883 74.3453 671.997 74.8585C672.111 75.3717 672.225 75.8707 672.339 76.3553C672.453 76.84 672.539 77.3104 672.596 77.7666H672.638C672.752 77.2534 672.881 76.7117 673.023 76.1415C673.166 75.5428 673.308 74.9298 673.451 74.3026C673.565 73.9034 673.665 73.5185 673.75 73.1479C673.864 72.7488 673.964 72.3639 674.05 71.9932L678.283 56.1699L684.399 56.1699L688.675 71.9932C688.761 72.3069 688.847 72.6347 688.932 72.9768C689.018 73.319 689.103 73.6611 689.189 74.0032C689.445 75.0296 689.745 76.2841 690.087 77.7666H690.13C690.187 77.4815 690.244 77.1964 690.301 76.9113C690.358 76.5977 690.429 76.2698 690.514 75.9277C690.8 74.5592 691.099 73.2477 691.412 71.9932L695.561 56.1699H701.633Z" fill="#BCEC79"/>
<path d="M650.481 87.218C648.485 87.218 646.646 86.7191 644.964 85.7212C643.282 84.6948 641.942 83.3263 640.944 81.6157C639.975 79.8765 639.49 77.9806 639.49 75.9278C639.49 73.8751 639.975 71.9934 640.944 70.2828C641.942 68.5436 643.282 67.1751 644.964 66.1773C646.646 65.1509 648.485 64.6377 650.481 64.6377H650.524C652.52 64.6377 654.344 65.1509 655.998 66.1773C657.68 67.1751 659.006 68.5436 659.975 70.2828C660.973 72.0219 661.472 73.9036 661.472 75.9278C661.472 77.9521 660.973 79.8338 659.975 81.5729C659.006 83.3121 657.68 84.6948 655.998 85.7212C654.344 86.7191 652.52 87.218 650.524 87.218H650.481ZM650.524 81.3163C651.436 81.3163 652.277 81.074 653.047 80.5893C653.817 80.1046 654.415 79.4631 654.843 78.6648C655.299 77.838 655.527 76.9257 655.527 75.9278C655.527 74.9585 655.299 74.0604 654.843 73.2336C654.387 72.4068 653.774 71.7511 653.004 71.2664C652.234 70.7817 651.408 70.5394 650.524 70.5394H650.481C649.54 70.5394 648.685 70.7817 647.915 71.2664C647.145 71.7511 646.532 72.4068 646.076 73.2336C645.62 74.0604 645.392 74.9585 645.392 75.9278C645.392 76.8972 645.62 77.7953 646.076 78.6221C646.532 79.4489 647.145 80.1046 647.915 80.5893C648.685 81.074 649.54 81.3163 650.481 81.3163H650.524Z" fill="#BCEC79"/>
<path d="M622.604 87.2156C619.781 87.2156 617.172 86.5171 614.777 85.1201C612.411 83.6946 610.515 81.7844 609.09 79.3895C607.693 76.9946 606.994 74.3859 606.994 71.5634C606.994 68.7408 607.693 66.1321 609.09 63.7373C610.515 61.3424 612.411 59.4464 614.777 58.0494C617.172 56.6239 619.781 55.9111 622.604 55.9111C625.113 55.9111 627.351 56.4813 629.318 57.6218C631.285 58.7337 632.853 60.1592 634.022 61.8983C635.22 63.6375 635.975 65.4194 636.289 67.244H630.13C629.874 66.2177 629.361 65.2911 628.591 64.4643C627.821 63.6375 626.909 62.996 625.854 62.5398C624.799 62.0551 623.716 61.8128 622.604 61.8128C620.836 61.8128 619.211 62.2547 617.728 63.1385C616.274 64.0224 615.105 65.2055 614.222 66.6881C613.338 68.1706 612.896 69.7957 612.896 71.5634C612.896 73.331 613.338 74.9561 614.222 76.4387C615.105 77.9212 616.274 79.1044 617.728 79.9882C619.211 80.8721 620.836 81.314 622.604 81.314C624.371 81.314 625.954 80.8435 627.351 79.9027C628.748 78.9618 629.703 77.6789 630.216 76.0538H636.331C636.018 78.021 635.262 79.8599 634.065 81.5706C632.867 83.2527 631.271 84.6212 629.275 85.6761C627.308 86.7024 625.084 87.2156 622.604 87.2156Z" fill="#BCEC79"/>
<path fill-rule="evenodd" clip-rule="evenodd" d="M545.602 95.4591C542.041 95.4591 538.89 93.16 537.813 89.7761L532.278 72.3792H528.875C525.314 72.3792 522.163 70.0801 521.086 66.6962L517.797 56.359L530.134 56.359L523.627 46.584H585.28L578.773 56.359L591.11 56.359L587.82 66.6962C586.744 70.0801 583.593 72.3792 580.032 72.3792H576.629L571.093 89.7761C570.017 93.16 566.866 95.4591 563.305 95.4591H545.602ZM541.42 67.6274C541.42 70.2517 543.385 72.3792 545.81 72.3792C548.234 72.3792 550.199 70.2517 550.199 67.6274C550.199 65.0031 548.234 62.8757 545.81 62.8757C543.385 62.8757 541.42 65.0031 541.42 67.6274ZM567.487 67.6274C567.487 70.2517 565.521 72.3792 563.097 72.3792C560.672 72.3792 558.707 70.2517 558.707 67.6274C558.707 65.0031 560.672 62.8757 563.097 62.8757C565.521 62.8757 567.487 65.0031 567.487 67.6274Z" fill="#BCEC79"/>
</svg>
