<svg xmlns="http://www.w3.org/2000/svg" width="36" height="24" fill="none"><path fill="#DDC6AB" fillRule="evenodd" d="M13.653 24a4.011 4.011 0 0 1-3.824-2.79l-2.212-6.95a2.285 2.285 0 0 0-2.177-1.593 4.011 4.011 0 0 1-3.825-2.791L.777 7.241A1.873 1.873 0 0 1 2.56 4.8h.614c1.233 0 1.969-1.374 1.285-2.4C3.777 1.374 4.513 0 5.746 0h24.508c1.233 0 1.969 1.374 1.286 2.4-.683 1.026.052 2.4 1.285 2.4h.614a1.873 1.873 0 0 1 1.784 2.44l-.838 2.636a4.011 4.011 0 0 1-3.825 2.79c-.995 0-1.876.645-2.177 1.593l-2.212 6.95A4.011 4.011 0 0 1 22.346 24h-8.693ZM11.6 10.333c0 1.289.965 2.334 2.156 2.334 1.19 0 2.155-1.045 2.155-2.334 0-1.288-.965-2.333-2.155-2.333S11.6 9.045 11.6 10.333Zm12.8 0c0 1.289-.965 2.334-2.156 2.334-1.19 0-2.155-1.045-2.155-2.334 0-1.288.965-2.333 2.155-2.333S24.4 9.045 24.4 10.333Z" clipRule="evenodd"/></svg>