<svg xmlns="http://www.w3.org/2000/svg" width="24" height="24" fill="none"><circle cx="12" cy="12" r="12" fill="#fff"/><path fill="url(#a)" d="M12.164 2.626a9.375 9.375 0 1 1-9.028 6.322l4.077 1.404a5.063 5.063 0 1 0 4.875-3.414l.076-4.312Z"/><path fill="url(#b)" stroke="#fff" stroke-linecap="round" stroke-linejoin="round" d="M6.508 3.794a9.875 9.875 0 0 0-3.453 4.024.98.98 0 0 0 .53 1.321l7.547 3.049a1 1 0 0 0 1.374-.92l.057-8.14a.98.98 0 0 0-1.02-.992 9.875 9.875 0 0 0-5.035 1.658Z"/><defs><linearGradient id="a" x1="12" x2="9" y1="2.625" y2="25.25" gradientUnits="userSpaceOnUse"><stop stop-color="#DEC891"/><stop offset=".475" stop-color="#C5A965"/><stop offset="1" stop-color="#B2954F"/></linearGradient><linearGradient id="b" x1="3.25" x2="11.625" y1="9.875" y2="3" gradientUnits="userSpaceOnUse"><stop stop-color="#7F6AE8"/><stop offset="1" stop-color="#B3AEF5"/></linearGradient></defs></svg>