<svg xmlns="http://www.w3.org/2000/svg" width="1440" height="203" fill="none"><path fill="#408A13" d="M0 85h156.867a90.003 90.003 0 0 1 61.16 23.973L258 146H0V85ZM73 65l7 20H66l7-20ZM126 49.318 138.6 85h-25.2L126 49.32Z"/><path fill="#408A13" d="m108 42 12.6 35.68H95.4L108 42ZM106.201 77.682h3.6v7.319h-3.6z"/><path fill="#6FC025" d="M0 146h494.026a89.996 89.996 0 0 1 55.92 19.481L596 202H0v-56Z"/><path fill="#408A13" d="M905.133 199.483V191L913 202h-20v-11l6.067 8.483V191l6.066 8.483ZM720.867 191 713 202h13.933v-11l-6.067 8.483.001-8.483Z"/><path fill="#9BD955" d="M0 174h127.756a45.003 45.003 0 0 1 36.456 18.619L171 202H0v-28Z"/><path fill="#6FC025" d="m400.5 126 7.5 20h-15l7.5-20Z"/><path fill="#408A13" d="m1140 183 7 19h-14l7-19Z"/><path fill="#6FC025" d="m156.599 110.732-12.6 35.266h25.2l-12.6-35.266Z"/><path fill="#6FC025" d="m174.599 103.5-12.6 35.266h25.2l-12.6-35.266ZM176.4 138.766h-3.6V146h3.6z"/><path fill="#408A13" d="M1325.7 139H1440v63h-114.3v-63Z"/><path fill="#9BD955" d="m1285.2 166 40.5-27 40.5 27v36h-81v-36Z"/><path fill="#408A13" d="M1301.4 178.6h48.6V202h-48.6v-23.4Z"/><path fill="#9BD955" d="M1230.3 134.5c0-12.426 10.07-22.5 22.5-22.5s22.5 10.074 22.5 22.5V202h-45v-67.5Z"/><path fill="#408A13" d="m1154.7 160-12.6 34.851h25.2L1154.7 160ZM1156.5 194.852h-3.6v7.149h3.6zM1104.3 171.699l-8.1 23.171h16.2l-8.1-23.171ZM1106.1 194.871h-3.6v7.13h3.6z"/><path fill="#6FC025" d="M305.833 41h3.334L310 146h-5l.833-105ZM309.599 0h1.8l3.76 33.09a7.735 7.735 0 0 1-5.56 8.31V0Z"/><path fill="#6FC025" d="m273.744 62.1-.9-1.56 26.777-19.8a7.735 7.735 0 0 1 9.977.66l-35.854 20.7Z"/><path fill="#6FC025" d="m345.451 62.1-.9 1.558-30.537-13.288a7.735 7.735 0 0 1-4.417-8.97l35.854 20.7ZM431.1 103.5l-12.6 35.1h25.2l-12.6-35.1ZM432.9 138.6h-3.6v7.2h3.6z"/><path fill="#9BD955" d="M994.505 202.359h17.805l-1.88-17.093h-19.486l3.561 17.093Z"/><path fill="#408A13" d="m936.103 143.957-13.533 13.532v23.148l7.123.356-2.137 21.367h17.093l3.562-17.094h3.561l-1.425 17.094h17.806l2.849-17.094h32.758l3.57 17.094h17.8l-6.41-58.403h-82.617Z"/><path fill="#9BD955" fill-rule="evenodd" d="M925.246 188.826a5.237 5.237 0 0 1-4.994-3.644l-3.549-11.154h-2.182a5.237 5.237 0 0 1-4.994-3.644l-2.109-6.628h7.91l-4.172-6.268h39.531l-4.172 6.268h7.91l-2.109 6.628a5.237 5.237 0 0 1-4.994 3.644h-2.182l-3.549 11.154a5.237 5.237 0 0 1-4.994 3.644h-11.351Zm-2.681-17.845c0 1.683 1.26 3.047 2.814 3.047 1.555 0 2.815-1.364 2.815-3.047s-1.26-3.047-2.815-3.047c-1.554 0-2.814 1.364-2.814 3.047Zm16.713 0c0 1.683-1.26 3.047-2.814 3.047-1.555 0-2.815-1.364-2.815-3.047s1.26-3.047 2.815-3.047c1.554 0 2.814 1.364 2.814 3.047Z" clip-rule="evenodd"/><path fill="#9BD955" d="m980.97 129 31.36 4.864a7.092 7.092 0 0 1 5.96 6.241l.43 3.852h-27.101c-5.881 0-10.649-4.768-10.649-10.649V129Z"/><path fill="#408A13" d="M999.352 185.264H973l.737 3.49a7.271 7.271 0 0 0 7.114 5.769h10.65a7.27 7.27 0 0 0 7.114-5.769l.737-3.49Z"/><path fill="#408A13" d="M981.546 193.811h3.562v2.508c0 .977-.788 1.764-1.765 1.764a1.8 1.8 0 0 1-1.797-1.797v-2.475ZM987.284 193.811h3.561v2.508a1.76 1.76 0 0 1-1.764 1.764 1.8 1.8 0 0 1-1.797-1.797v-2.475Z"/><path fill="#6FC025" d="M807 173.15a3.666 3.666 0 0 0 3.667 3.666h63.066c6.075 0 11-4.924 11-11v-8.8a3.666 3.666 0 0 0-3.666-3.666H818c-6.075 0-11 4.925-11 11v8.8Z"/><path fill="#408A13" d="M868.6 148.216a3.667 3.667 0 0 1-3.667 3.667h-37.4a3.667 3.667 0 0 1-3.667-3.667v-16.133a3.667 3.667 0 0 1 3.667-3.667h22.733c10.125 0 18.334 8.208 18.334 18.333v1.467ZM860.533 190.017c0-6.481-5.253-11.734-11.733-11.734h-5.867c-6.48 0-11.733 5.253-11.733 11.734 0 6.48 5.253 11.733 11.733 11.733h5.867c6.48 0 11.733-5.253 11.733-11.733Z"/><circle cx="846.235" cy="114.85" r="12.1" fill="#6FC025"/><path fill="#408A13" d="m842.201 115.216 4.4-7.333 4.4 7.333-4.4 7.333-4.4-7.333Z"/></svg>