<svg xmlns="http://www.w3.org/2000/svg" width="359" height="202" fill="none"><g clip-path="url(#a)"><path fill="#194D05" d="M-77 141H69.867a90.002 90.002 0 0 1 61.16 23.973L171 202H-77v-61Z"/><path fill="#2B6F0B" d="M303.087 202.609h17.806l-1.876-17.093h-19.491l3.561 17.093Z"/><path fill="#6FC025" d="m244.685 144.207-13.533 13.532v23.148l7.123.356-2.137 21.367h17.093l3.562-17.094h3.561l-1.425 17.094h17.806l2.849-17.094h32.762l3.562 17.094h17.805l-6.41-58.403h-82.618Z"/><path fill="#2B6F0B" fill-rule="evenodd" d="M233.828 189.076a5.237 5.237 0 0 1-4.994-3.644l-3.549-11.154h-2.182a5.237 5.237 0 0 1-4.994-3.644L216 164.006h7.91l-4.172-6.268h39.531l-4.172 6.268h7.91l-2.109 6.628a5.236 5.236 0 0 1-4.994 3.644h-2.182l-3.549 11.154a5.237 5.237 0 0 1-4.994 3.644h-11.351Zm-2.681-17.845c0 1.683 1.26 3.047 2.814 3.047 1.555 0 2.815-1.364 2.815-3.047s-1.26-3.047-2.815-3.047c-1.554 0-2.814 1.364-2.814 3.047Zm16.713 0c0 1.683-1.26 3.047-2.814 3.047-1.555 0-2.815-1.364-2.815-3.047s1.26-3.047 2.815-3.047c1.554 0 2.814 1.364 2.814 3.047Z" clip-rule="evenodd"/><path fill="#2B6F0B" d="m289.552 129.25 31.356 4.864a7.1 7.1 0 0 1 5.969 6.241l.423 3.852h-27.099c-5.881 0-10.649-4.768-10.649-10.649v-4.308Z"/><path fill="#6FC025" d="M307.934 185.514h-26.352l.737 3.49a7.272 7.272 0 0 0 7.114 5.769h10.65a7.27 7.27 0 0 0 7.114-5.769l.737-3.49Z"/><path fill="#6FC025" d="M290.128 194.061h3.562v2.508c0 .977-.788 1.764-1.765 1.764a1.8 1.8 0 0 1-1.797-1.797v-2.475ZM295.866 194.061h3.561v2.508a1.76 1.76 0 0 1-1.764 1.764 1.8 1.8 0 0 1-1.797-1.797v-2.475ZM112 173.4a3.666 3.666 0 0 0 3.667 3.666h63.066c6.075 0 11-4.924 11-11v-8.8a3.666 3.666 0 0 0-3.666-3.666H123c-6.075 0-11 4.925-11 11v8.8Z"/><path fill="#408A13" d="M173.6 148.466a3.667 3.667 0 0 1-3.667 3.667h-37.4a3.667 3.667 0 0 1-3.667-3.667v-16.133a3.667 3.667 0 0 1 3.667-3.667h22.733c10.125 0 18.334 8.208 18.334 18.333v1.467ZM165.533 190.267c0-6.481-5.253-11.734-11.733-11.734h-5.867c-6.48 0-11.733 5.253-11.733 11.734 0 6.48 5.253 11.733 11.733 11.733h5.867c6.48 0 11.733-5.253 11.733-11.733Z"/><circle cx="151.235" cy="115.1" r="12.1" fill="#6FC025"/><path fill="#2B6F0B" d="m147.201 115.466 4.4-7.333 4.4 7.333-4.4 7.333-4.4-7.333Z"/><path fill="#408A13" d="M-64 174H63.755a45.002 45.002 0 0 1 36.457 18.619L107 202H-64v-28Z"/><path fill="#2B6F0B" d="M55.24 70h3.332l.826 104h-4.984l.825-104ZM59.005 29h1.8l3.76 33.09a7.735 7.735 0 0 1-5.56 8.31V29Z"/><path fill="#2B6F0B" d="m23.15 91.1-.9-1.56 26.776-19.8a7.735 7.735 0 0 1 9.977.66L23.15 91.1ZM94.856 91.1l-.9 1.559L63.42 79.37a7.735 7.735 0 0 1-4.417-8.97l35.853 20.7ZM23.6 133 11 168.1h25.2L23.6 133ZM25.4 168.1h-3.6v5.9h3.6v-5.9Z"/><path fill="#194D05" d="M207.133 199.483V191L215 202h-20v-11l6.067 8.483V191l6.066 8.483ZM45.867 191 38 202h13.933v-11l-6.067 8.483.001-8.483Z"/></g><defs><clipPath id="a"><path fill="#fff" d="M0 0h359v202H0z"/></clipPath></defs></svg>