<svg xmlns="http://www.w3.org/2000/svg" width="301" height="65" fill="none" viewBox="0 0 301 65"><path fill="#194D05" d="M.5.392h300v64.217H.5z"/><path fill="#BCEC79" d="M296.68 47.294h-5.695V25.332h-.041a3.157 3.157 0 0 1-.123.491 2.132 2.132 0 0 1-.123.45 34.032 34.032 0 0 1-.819 2.787l-.861 2.418-5.613 15.816h-5.778l-5.613-15.816a39.023 39.023 0 0 1-.615-1.64 62.772 62.772 0 0 0-.532-1.761c-.137-.41-.26-.82-.369-1.23l-.328-1.31h-.041V47.293h-5.695V17.792h8.358l5.081 14.136c.219.628.437 1.298.656 2.008.246.683.478 1.366.696 2.049.219.71.437 1.406.656 2.09.218.682.423 1.351.615 2.007h.041c.218-.656.423-1.325.614-2.008l.656-2.13c.218-.71.437-1.394.655-2.05.219-.682.437-1.338.656-1.966l5.122-14.136h8.44v29.502ZM258.385 47.294h-5.695V25.332h-.041a3.4 3.4 0 0 1-.123.491 2.258 2.258 0 0 1-.123.45 33.637 33.637 0 0 1-.82 2.787c-.3.847-.587 1.653-.86 2.418l-5.614 15.816h-5.777l-5.614-15.816a40.446 40.446 0 0 1-.614-1.64 62.853 62.853 0 0 0-.533-1.761c-.136-.41-.259-.82-.369-1.23l-.327-1.31h-.041V47.293h-5.696V17.792h8.359l5.081 14.136c.218.628.437 1.298.655 2.008.246.683.478 1.366.697 2.049.218.71.437 1.406.656 2.09.218.682.423 1.351.614 2.007h.041a42.28 42.28 0 0 0 .615-2.008l.655-2.13c.219-.71.437-1.394.656-2.05.218-.682.437-1.338.656-1.966l5.121-14.136h8.441v29.502ZM199.689 39.877v-5.245h15.57v5.245h-15.57Zm16.84 7.417-5.736-14.874a68.592 68.592 0 0 0-.738-1.885 78.029 78.029 0 0 1-.696-1.844 42.226 42.226 0 0 0-.615-1.72l-.574-1.722h-.04c-.11.356-.233.71-.369 1.066l-.328 1.065c-.273.82-.574 1.639-.901 2.459-.301.819-.629 1.68-.984 2.58l-5.736 14.875h-6.146l11.431-29.502h6.147l11.431 29.502h-6.146ZM180.811 17.792l-8.072 29.502h-5.86l-4.056-15.161c-.11-.437-.232-.901-.369-1.393a39.102 39.102 0 0 0-.369-1.516l-.328-1.475a54.564 54.564 0 0 0-.327-1.393h-.041c-.11.41-.233.86-.369 1.352a118.5 118.5 0 0 0-.328 1.434l-.41 1.557c-.109.492-.232.97-.368 1.434l-4.057 15.16h-5.859l-8.072-29.501h5.818l4.016 15.16c.109.41.218.847.327 1.312.11.464.219.942.328 1.434.11.492.219.97.328 1.434.109.464.191.915.246 1.352h.041c.109-.492.232-1.01.369-1.557.136-.574.273-1.16.409-1.762.11-.382.205-.751.287-1.106.109-.383.205-.751.287-1.106l4.056-15.161h5.86l4.097 15.16c.082.301.164.615.246.943l.246.983c.246.984.533 2.186.86 3.606h.041l.164-.82c.055-.3.123-.614.205-.942a96.54 96.54 0 0 1 .861-3.77l3.974-15.16h5.819ZM131.801 47.54c-1.912 0-3.674-.478-5.285-1.434a11.069 11.069 0 0 1-3.852-3.934c-.929-1.666-1.393-3.483-1.393-5.45 0-1.966.464-3.77 1.393-5.408.956-1.666 2.24-2.978 3.852-3.934a9.954 9.954 0 0 1 5.285-1.475h.041c1.913 0 3.661.492 5.245 1.475 1.612.956 2.882 2.268 3.811 3.934a10.685 10.685 0 0 1 1.434 5.408c0 1.94-.478 3.743-1.434 5.41a10.648 10.648 0 0 1-3.811 3.974c-1.584.956-3.332 1.434-5.245 1.434h-.041Zm.041-5.655a4.45 4.45 0 0 0 2.418-.696 4.858 4.858 0 0 0 1.721-1.844 5.338 5.338 0 0 0 .655-2.623c0-.928-.218-1.789-.655-2.58a5.092 5.092 0 0 0-1.762-1.886 4.383 4.383 0 0 0-2.377-.696h-.041a4.52 4.52 0 0 0-2.458.696 5.084 5.084 0 0 0-1.762 1.885 5.258 5.258 0 0 0-.656 2.581c0 .93.219 1.79.656 2.582a5.083 5.083 0 0 0 1.762 1.885 4.52 4.52 0 0 0 2.458.696h.041ZM105.091 47.537c-2.704 0-5.203-.669-7.498-2.008a15.657 15.657 0 0 1-5.45-5.49c-1.338-2.295-2.007-4.794-2.007-7.498 0-2.705.669-5.204 2.008-7.499 1.365-2.294 3.182-4.11 5.45-5.45 2.294-1.365 4.793-2.048 7.497-2.048 2.404 0 4.549.546 6.433 1.639 1.885 1.065 3.388 2.431 4.508 4.097 1.147 1.667 1.871 3.374 2.171 5.122h-5.9c-.246-.983-.738-1.871-1.475-2.663a7.74 7.74 0 0 0-2.623-1.844 7.379 7.379 0 0 0-3.114-.697c-1.693 0-3.25.424-4.671 1.27a9.772 9.772 0 0 0-3.36 3.401c-.846 1.421-1.27 2.978-1.27 4.672 0 1.693.424 3.25 1.27 4.67a9.773 9.773 0 0 0 3.36 3.402c1.421.846 2.978 1.27 4.671 1.27 1.694 0 3.21-.451 4.549-1.352 1.338-.902 2.253-2.131 2.745-3.688h5.859c-.3 1.885-1.024 3.647-2.171 5.286-1.148 1.611-2.677 2.922-4.59 3.933-1.884.983-4.015 1.475-6.392 1.475Z"/><path fill="#BCEC79" fill-rule="evenodd" d="M31.316 55.434a7.826 7.826 0 0 1-7.462-5.445L18.55 33.321h-3.26a7.826 7.826 0 0 1-7.463-5.445l-3.151-9.904h11.82l-6.234-9.366h59.07l-6.234 9.366h11.82l-3.152 9.904a7.826 7.826 0 0 1-7.462 5.445h-3.26L55.74 49.99a7.826 7.826 0 0 1-7.462 5.445H31.316ZM27.309 28.77c0 2.514 1.883 4.552 4.206 4.552 2.323 0 4.206-2.038 4.206-4.552 0-2.515-1.883-4.553-4.206-4.553-2.323 0-4.206 2.038-4.206 4.552Zm24.975 0c0 2.514-1.883 4.552-4.206 4.552-2.323 0-4.206-2.038-4.206-4.552 0-2.515 1.883-4.553 4.206-4.553 2.323 0 4.206 2.038 4.206 4.552Z" clip-rule="evenodd"/></svg>