<svg xmlns="http://www.w3.org/2000/svg" width="78" height="64" fill="none" viewBox="0 0 78 64"><path fill="#194D05" d="M0 0h78v64H0z"/><path fill="#BCEC79" fill-rule="evenodd" d="M30.316 55.043a7.826 7.826 0 0 1-7.462-5.445L17.55 32.93h-3.26a7.826 7.826 0 0 1-7.463-5.445L3.676 17.58h11.82L9.26 8.215h59.071l-6.234 9.365h11.82l-3.152 9.905a7.826 7.826 0 0 1-7.462 5.445h-3.26L54.74 49.598a7.826 7.826 0 0 1-7.462 5.445H30.316Zm-4.007-26.666c0 2.514 1.883 4.553 4.206 4.553 2.323 0 4.206-2.039 4.206-4.553s-1.883-4.553-4.206-4.553c-2.323 0-4.206 2.038-4.206 4.553Zm24.975 0c0 2.514-1.883 4.553-4.206 4.553-2.323 0-4.206-2.039-4.206-4.553s1.883-4.553 4.206-4.553c2.323 0 4.206 2.038 4.206 4.553Z" clip-rule="evenodd"/></svg>