<svg xmlns="http://www.w3.org/2000/svg" width="36" height="20" fill="none"><path fill="#DDC6AB" d="m30.28 8.394-.27-.056a1.052 1.052 0 0 1-.808-.846c-.132-.713.463-1.39 1.173-1.246 3.464.701 5.624 1.693 5.624 2.794v.042c-.105 2.105-8.124 3.806-18 3.806-9.941 0-18-1.723-18-3.848 0-.013 0-.026.002-.04.05-1.1 2.265-2.09 5.778-2.786.71-.14 1.302.537 1.169 1.249a1.054 1.054 0 0 1-.814.845l-.416.086c-.466.1-.893.203-1.28.308-.368.1-.369.576 0 .675.387.105.814.208 1.28.308.327.069.668.136 1.022.201 2.98.541 6.91.879 11.26.879 4.42 0 8.409-.35 11.405-.905.302-.056.595-.115.875-.175.801-.172.801-1.12 0-1.29ZM31.48 2.403v-.03c0-.807-1.524-1.537-3.985-2.064-.863-.185-1.424 1.102-.866 1.785.063.077.125.155.186.233.005.007.012.011.02.013l.034.007c.028.006.028.046 0 .052-2.239.46-5.363.759-8.868.759-3.515 0-6.646-.3-8.886-.763a.023.023 0 0 1 0-.044l.03-.006a.03.03 0 0 0 .018-.011c.062-.08.126-.16.19-.239.557-.682-.004-1.967-.866-1.782-2.45.526-3.966 1.255-3.966 2.06 0 1.417 6.526 2.543 10.924 2.855 1.674.119 3.367.119 5.041.003 4.422-.305 10.93-1.42 10.994-2.828ZM4.521 17.08c0-.653.993-1.253 2.67-1.738.427-.123.87.09 1.094.473.246.425.518.833.813 1.22a.017.017 0 0 1-.01.027c-.018.004-.018.03 0 .034l.06.012a.02.02 0 0 1 .011.007.019.019 0 0 0 .014.006h.032c.006 0 .01 0 .016.002 2.232.45 5.32.74 8.78.74 3.46 0 6.55-.29 8.782-.74a.053.053 0 0 1 .011-.002h.018a.012.012 0 0 0 .01-.004.012.012 0 0 1 .006-.004l.073-.015c.021-.004.021-.034 0-.038a.02.02 0 0 1-.012-.032c.295-.387.567-.795.813-1.22.222-.382.663-.594 1.087-.472 1.69.485 2.69 1.09 2.69 1.743v.042c-.105 1.587-6.098 2.865-13.478 2.865S4.626 18.708 4.522 17.121l-.001-.042Z"/></svg>