<svg xmlns="http://www.w3.org/2000/svg" width="34" height="32" fill="none"><path fill="#DDC6AB" d="M23.062 2.753c-.2.138-.398.278-.597.414-.074.051-.182.095-.083.201.087.094.078.318.283.26 1.75-.5 3.063.264 4.165 1.502 1.188 1.333 1.947 2.924 2.501 4.609.39 1.184.982 2.266 1.627 3.322a54.963 54.963 0 0 0 2.911 4.272c.033.043.06.09.09.135.032.045.062.1.022.147-.054.063-.091-.014-.137-.026l-2.928-.827.891 3.786-2.368-2.2-.06.022.57 4.072-.048.028-2.358-2.868c-.33 1.403-.644 2.75-.976 4.156l-1.562-2.505c-.271 1.074-.528 2.1-.785 3.127-.127-.03-.109-.134-.123-.2-.696-2.986-1.479-5.95-2.123-8.947-.226-1.058-.436-2.119-.66-3.177a5.245 5.245 0 0 0-.508-1.366c-.453-.861-1.247-1.176-2.141-1.337-1.078-.194-2.17-.247-3.258-.321-1.116-.077-2.234-.14-3.344-.284-.695-.09-1.27-.454-1.761-.939-.922-.918-1.488-2.011-1.493-3.34a2.536 2.536 0 0 1 .711-1.79c.619-.664 1.27-1.288 1.988-1.835.075-.054.139-.142.28-.128-.074.217-.154.427-.214.64-.133.471-.238.945-.13 1.44.078.366.336.588.608.8.137.108.192-.054.25-.12.559-.626 1.107-1.26 1.603-1.94.103-.15.229-.285.373-.398-.079.502-.158 1.004-.245 1.567l2.656-2.03c-.034.24-.162.37-.23.523-.126.284-.339.526-.404.839l-.03.012c.006 0 .015.005.017.003a.087.087 0 0 0 .01-.021c.488-.167.918-.448 1.38-.664.393-.183.773-.39 1.16-.584.084-.043.172-.08.312-.144L18.532 2.2l2.862-1.03-.674 2.14 2.303-.601.039.044Z"/><path fill="#DDC6AB" d="M11.182 22.965c.264-.02.506-.05.748-.054.137 0 .163-.054.163-.177-.004-.434-.017-.442-.453-.414-.82.055-1.638.11-2.459.146-1.47.062-2.464-1.274-1.993-2.663.921-2.722 1.85-5.442 2.765-8.167.201-.603.465-1.15.985-1.544.445-.336.942-.542 1.501-.542 1.518.006 3.036-.064 4.549.072.492.045.984.117 1.473.198.597.1 1.003.506 1.378.937.294.339.477.742.613 1.166.38 1.2.878 2.364 1.109 3.613.275 1.49.681 2.95 1.03 4.422a.555.555 0 0 1-.044.416c-.466.867-1.17 1.389-2.161 1.463-1.017.075-2.035.13-3.053.174-.375.017-.183.26-.203.419-.03.23.124.2.27.19.496-.034.991-.058 1.486-.093.129-.008.172.028.18.163.049.874.102 1.748.166 2.62.012.16-.076.154-.177.164-.691.063-1.382.131-2.075.19-1.159.1-2.32.188-3.478.293-.176.016-.276.003-.285-.196a1.163 1.163 0 0 0-.055-.209c-.086-.355-.083-.345-.452-.264-.168.038-.225.099-.172.272.076.25.142.503.194.759.03.148.099.202.248.227.482.081.952-.035 1.425-.069.218-.016.297.044.291.25.001.045.005.09.01.135.054.607.268.756.854.591.14-.04.18-.134.167-.267-.02-.216-.038-.433-.063-.646-.013-.109.01-.158.135-.174.124-.017.154.046.168.144l.076.481c.054.333.083.355.424.307.08-.011.163-.026.24-.043.233-.052.33-.203.308-.434-.005-.045-.02-.088-.027-.133-.066-.42-.063-.407.356-.466.252-.036.37.034.363.296-.005.233.084.344.346.3.382-.062.496-.138.445-.422-.044-.243.05-.3.264-.293.168.006.386-.079.492 0 .118.088.043.322.054.492.07.999.137 1.998.198 2.998.03.495-.134.933-.498 1.268-.77.71-1.688 1.114-2.734 1.144a2.93 2.93 0 0 1-2.88-2.013c-.602-1.822-1.159-3.66-1.735-5.49-.157-.513-.315-1.025-.477-1.537Zm.734-2.928c1.018.003 1.74-.59 1.888-1.49.057-.346.062-.7.092-1.05.1-1.186.204-2.372.302-3.559.05-.61-.271-.995-.881-1.072-.179-.023-.357-.05-.534-.08-1.139-.185-2.249.345-2.735 1.356-.43.893-.834 1.797-1.21 2.713-.497 1.211.187 2.593 1.444 2.951.568.16 1.158.174 1.634.23v.001Zm8.586-2.501a2.742 2.742 0 0 0-.444-1.68l-1.29-1.967a2.63 2.63 0 0 0-2.732-1.12c-.841.18-1.37.888-1.274 1.682.114.94.227 1.879.312 2.82.136 1.5 1.159 2.459 2.67 2.496.718.017 1.36-.244 2.006-.483.222-.081.38-.264.498-.478.216-.394.272-.817.254-1.27Zm-5.886 4.99c.159.15.29.283.433.406.283.247.632.246.873.003.24-.242.236-.622-.036-.895-.389-.389-.783-.773-1.18-1.152-.326-.307-.868-.197-.997.227a19.387 19.387 0 0 0-.426 1.757c-.07.355.142.623.483.696.312.067.613-.13.71-.473.048-.173.086-.35.14-.57Zm2.578 8.458a.588.588 0 0 0-.582-.614.608.608 0 1 0 .582.614Zm-8.181-11.44c-.066-.081-.074-.23-.217-.125-.109.078-.213.163-.322.24-.054.039-.067.08-.02.131.046.051.07.194.162.129.144-.103.294-.217.397-.373v-.002Zm7.313-7.737c.062.096-.092.314.148.293.24-.021.109-.254.157-.386s-.033-.21-.168-.2c-.21.016-.09.19-.137.293Zm.793-.058c.052-.155-.03-.196-.127-.19-.277.02-.133.254-.182.388-.032.086-.064.222.098.21.287-.025.116-.306.211-.408ZM8.971 20.3c.095 0 .372-.427.33-.493-.044-.066-.115-.157-.213-.054-.08.085-.158.173-.233.262-.03.038-.099.074-.054.133.053.055.11.106.17.152Zm11.983-.261c-.005-.062-.34-.427-.38-.42a.198.198 0 0 0-.112.062c-.054.067.204.546.287.527a.272.272 0 0 0 .206-.169h-.001Zm-9.882.53c-.017-.09.064-.209-.118-.218-.259-.009-.155.195-.18.308-.026.112-.09.293.12.281.256-.012.093-.256.18-.372h-.002Zm-1.66.022c.151-.094.175-.263.26-.392.057-.088.04-.14-.047-.195-.087-.055-.13-.015-.171.055-.066.108-.131.212-.193.32-.098.173.081.147.153.212h-.001Zm10.73-.735c-.039.004-.093.035-.066.133.036.13.065.262.104.391.04.13.125.065.198.042.072-.022.141-.05.092-.15-.05-.101-.099-.212-.152-.317-.025-.053-.044-.123-.174-.099h-.002Zm1.066-1.355c-.13-.032-.225.007-.197.12.057.231.28.12.424.17.106.037.202-.004.174-.12-.053-.234-.282-.11-.399-.172l-.002.002Zm-2.252-5.961a.221.221 0 0 0-.04-.051c-.067-.049-.149-.163-.213-.03-.072.15-.356.184-.242.434.018.03.047.053.08.064.04.011.415-.359.415-.417Zm-.401-.33a.271.271 0 0 0-.193-.137c-.047-.011-.327.388-.314.446a.168.168 0 0 0 .153.128c.057.009.357-.347.354-.436ZM20.2 14.4l-.374.23c-.045.03-.102.065-.048.125.044.048.075.154.163.108.133-.075.262-.158.386-.248.049-.033.034-.079.012-.12-.022-.04-.048-.1-.139-.095Zm.94 1.329c-.025-.028-.095-.133-.109-.125-.158.076-.309.167-.451.27-.06.045.018.113.044.163a.095.095 0 0 0 .09.029 8.07 8.07 0 0 0 .4-.212c.033-.021.046-.053.026-.125Zm-.08 1.184c.137-.034.259-.062.38-.095.069-.019.147-.031.109-.138-.03-.08-.058-.154-.167-.125l-.36.099c-.094.026-.095.094-.076.169.02.075.048.115.115.09Zm.145.441c.096-.114.36.105.412-.17.02-.098-.04-.168-.141-.128-.146.06-.371-.065-.437.17-.022.076.022.166.166.128Zm-1.374-3.618c-.06-.054-.071-.204-.214-.115-.1.062-.195.129-.293.192-.083.054-.104.117-.043.202s.119.06.186.017c.098-.063.198-.123.296-.187.035-.024.08-.045.068-.109Zm.023 6.84c.065-.029.179-.021.142-.145a4.007 4.007 0 0 0-.153-.405c-.035-.082-.105-.048-.163-.03-.068.021-.108.055-.076.14.05.125.093.253.14.38a.092.092 0 0 0 .11.06Zm-.342-.022c-.084-.114.011-.352-.212-.411-.059-.016-.189.026-.143.136.066.156-.003.394.23.45.076.019.16-.037.125-.175Zm-9.634.222c.075.015.109-.008.12-.059.038-.138.08-.274.114-.413.02-.084-.047-.102-.109-.123-.062-.021-.1.009-.12.065-.043.118-.079.239-.127.354-.063.153.048.16.122.176Zm9.272-7.102c.108-.073.223-.156.344-.233.065-.042.087-.083.04-.153-.048-.07-.084-.117-.171-.06-.114.072-.231.138-.345.21a.082.082 0 0 0-.026.136c.038.043.061.116.159.099h-.002Zm1.486 1.278c-.061-.067-.08-.194-.177-.149a2.46 2.46 0 0 0-.402.265c-.058.044-.008.098.02.14.029.043.078.079.136.045.124-.072.247-.146.367-.224.025-.018.038-.053.056-.077Zm-9.088 5.644c.016-.095.022-.18-.114-.191-.136-.013-.138.081-.15.172a6.281 6.281 0 0 1-.037.267c-.012.074-.03.15.082.157.084.005.162.008.176-.109.011-.1.03-.197.043-.296Zm9.813-2.566c-.115.02-.32-.044-.284.137.04.207.282.093.428.143.105.037.143-.018.144-.122 0-.243-.187-.12-.288-.158Zm-1.67-3.566c.103-.074.237-.163.362-.263.05-.04.015-.099-.016-.144a.093.093 0 0 0-.139-.035c-.113.07-.225.145-.336.221a.093.093 0 0 0-.044.065.094.094 0 0 0 .021.076c.028.042.043.104.152.08Zm1.424 4.492c-.142-.03-.181.011-.205.077-.031.08.014.111.082.136.102.035.201.075.299.12.118.058.153-.011.198-.1.063-.125-.023-.132-.102-.154l-.272-.079Zm-5.23-7.252c.105.114-.13.373.157.44.09.023.138-.053.1-.133-.071-.152.066-.38-.159-.467-.093-.034-.119.054-.098.16Zm4.95 7.608a.154.154 0 0 0-.116.152c-.003.059.37.351.434.342.09-.013.1-.096.114-.163.015-.066-.34-.336-.435-.331h.003Zm.55-3.049c-.04-.236-.166-.217-.294-.124-.1.073-.349.033-.275.239.088.246.248.003.375-.003.069-.003.18-.022.192-.112h.003Zm-2.103-3.353c-.033-.05-.066-.152-.133-.138-.182.041-.282.21-.408.332-.058.054.018.108.063.151.007.006.015.01.024.011.062.014.452-.281.452-.355h.002Zm-9.015 7.808c-.012.088-.026.167.087.163.312-.012.118-.28.201-.41.05-.077.014-.188-.09-.17-.258.045-.1.303-.2.419l.002-.002Zm11.084-2.913h.108c.1 0 .196.017.195-.14-.002-.158-.1-.14-.197-.135-.09.004-.179.008-.267.018-.058.006-.142-.005-.127.09.01.073.01.17.13.166.049.001.102.003.155.003l.003-.002Zm-.587-2.607c-.114.004-.45.283-.433.345.016.062.028.128.113.129.065 0 .446-.29.433-.334-.022-.066-.046-.14-.113-.14Zm-2.686-3.174c.006-.116-.087-.181-.146-.167-.217.054-.177.275-.244.425a.109.109 0 0 0 .112.146c.216-.046.172-.282.278-.404Zm-.468-.204a.114.114 0 0 0-.096-.135c-.061-.021-.128-.03-.154.05-.041.127-.077.256-.114.384a.091.091 0 0 0 .065.124c.042.015.097.037.12-.01.069-.143.127-.291.18-.413Zm-5.856 8.968a1.125 1.125 0 0 0-.014.102c0 .063-.051.16.062.162.083.004.07-.084.077-.143.004-.026.005-.053.004-.08-.015-.122.134-.32-.021-.345-.14-.02-.068.212-.105.304h-.002Zm-3.012-1.607c-.012-.032-.023-.081-.066-.063a1.642 1.642 0 0 0-.454.264c-.04.035-.012.083.038.101.05.017.477-.248.482-.302ZM4.79 10.227c-.306.054-.525.278-.787.418-.416.224-.796.51-1.226.71l.003.005c-.04-.227.091-.414.158-.611.347-1.017.773-2 1.22-2.977C4.71 6.567 5.693 6 6.905 5.722c.44-.1.888-.16 1.34-.18.143-.005.204.027.246.17.367 1.246 1.07 2.256 2.154 2.989.073.05.17.093.037.192-.734.55-1.09 1.356-1.414 2.169-.683 1.715-1.077 3.516-1.56 5.29-.399 1.471-.828 2.928-1.396 4.35-.456 1.135-1.18 1.949-2.318 2.426-.931.39-1.852.804-2.819 1.101a.435.435 0 0 0-.035-.036c.413-.792.9-1.541 1.344-2.315l.311-.537-2.494.177c.005-.13.088-.192.144-.266.702-.929 1.414-1.85 2.031-2.838.12-.192.225-.391.319-.597.072-.158.112-.34-.036-.478-.158-.147-.339-.092-.502.005-.685.403-1.435.565-2.257.558l5.703-4.759-.038-.077-2.808 1.03a.247.247 0 0 0-.033-.034l1.428-2.78c.18-.351.356-.705.534-1.058l.004-.017v.02Zm18.234-7.518c.036-.02.073-.037.112-.006l-.073.05-.04-.044Z"/><path fill="#DDC6AB" d="M2.857 14.095c-.023.018-.046.029-.065 0 0-.003.02-.022.032-.033.012.01.023.02.033.033Zm.609-2.538.054-.026v.067l-.054-.04ZM1.175 24.23c-.022.02-.046.032-.066 0-.003-.005.02-.024.03-.036a.435.435 0 0 1 .036.036Zm1.6-12.875a.11.11 0 0 1-.016.019l-.014-.006.034-.007-.003-.006ZM11.798.672l-.007-.02.017.001-.01.019Zm4.256 1.358a.092.092 0 0 1-.01.021s-.01 0-.016-.003l.03-.012-.004-.006ZM4.79 10.227v-.022l-.003.018.003.004Zm14.75 7.415c-.007.705-.489 1.27-1.193 1.398-.293.054-.585.104-.877.156a1.115 1.115 0 0 1-1.312-.88c-.08-.38-.148-.76-.206-1.142-.163-1.11.662-1.917 1.773-1.74 1.102.175 1.826 1.056 1.815 2.208Zm-1.815-1.091a1.057 1.057 0 1 0-.048 2.114 1.057 1.057 0 0 0 .049-2.114Z"/><path fill="#DDC6AB" d="M18.18 17.61c0 .283-.188.473-.472.478a.453.453 0 0 1-.484-.466c-.005-.292.2-.503.485-.497a.464.464 0 0 1 .47.484Zm-1.245.396c-.102-.034-.186-.086-.172-.209.014-.122.09-.168.209-.156a.164.164 0 0 1 .156.113c.007.022.01.045.006.068-.007.113-.085.174-.2.184Zm-6.101-.436c-.015-.124-.1-.187-.167-.256-.474-.497-.478-.495-.026-.97.301-.317.346-.316.633.006.419.467.418.467.831.01.06-.066.128-.127.19-.192.121-.127.232-.109.346.013.148.158.296.316.45.468.14.138.129.267-.006.396-.123.115-.25.23-.38.344-.163.14-.148.268.009.404.142.125.274.26.41.393.136.132.139.262 0 .396s-.27.264-.403.4c-.143.15-.284.137-.421 0a4.456 4.456 0 0 1-.344-.38c-.159-.204-.303-.183-.465-.004-.101.115-.209.225-.314.336-.147.157-.288.163-.433-.008a3.667 3.667 0 0 0-.282-.292c-.29-.278-.293-.384-.001-.657.091-.087.188-.169.276-.26a.882.882 0 0 0 .097-.147Z"/><path fill="#00F" d="m11.282 17.263-.013.036-.024-.018.039-.016-.002-.002Z"/></svg>