<?xml version="1.0" encoding="UTF-8"?>
<svg id="Layer_2" data-name="Layer 2" xmlns="http://www.w3.org/2000/svg" viewBox="0 0 200 200">
  <defs>
    <style>
      .cls-1 {
        fill: #000;
      }

      .cls-1, .cls-2 {
        stroke-width: 0px;
      }

      .cls-2 {
        fill: red;
      }
    </style>
  </defs>
  <g id="Layer_1-2" data-name="Layer 1">
    <g>
      <rect class="cls-1" x="0" y="0" width="200" height="200" rx="100" ry="100"/>
      <path class="cls-2" d="M152.6,142.03l-3.29,3.92-3.05,4.11-3.52,3.72-1.58,1.42-2.78,2.38-2.73.45-1.96-.47-3.15-1.86-4.53-3.02-5.1-4.68-3.26-3.13-4.91-4.91-4.61-3.87-2.69-1.47-2.19-.66-2.08.61-3.2,2.41-1.74,2.07-3.13,3.26-8.01,10.94-3.32,3.49-1.74,2.07-3.17,2.84-3.16.49-3.77-1.59-4.84-4.06-5.79-5.25-3.49-3.32-5.45-3.79-3.49-3.32-1.23-1.81-2.41-3.2-.49-3.16,2.25-3.61,3.05-4.11,2.86-3.88,8.42-8.63,2.67-3.65,1.16-1.38,1.78-4-.49-3.16-2.57-2.55-15.2-12.76-3.49-3.32-2.07-1.74-2.68-3.82-.91-3.12,2.05-3.38,1.51-2.27,3.52-3.72,3.36-3.07,3.32-3.49,4.37-6.14,3.75-3.53,3.4-2.64,3.16-.49,3.38,2.05,5.76,4.83,7.21,6.84,7.99,5.92,3.15,1.86,2,.89,2.5-.65,2.59-2.15,2.94-3.03,2.67-3.65,7.46-9.83,4.83-5.76,2.97-2.61,2.47-1.07,1.92.05,2.5,1.7,1.81,1.12,3.26,3.13,5.18,5.52,3.69,3.09,5.68,3.98,5.3,4.45,2.15,2.59.84,2.27-.43,2.39-1.86,3.15-6.57,7.83-3.32,3.49-4.91,4.91-2.48,3.42-1.55,1.84-1.44,3.11-.43,2.39.8,1.85,2.15,2.59,5.53,4.64,12.56,9.36,3.49,3.32,1.65,1.78,2.61,2.97.53,3.58-1.55,4.19-3.29,3.92-5.06,5.56ZM59.13,61.64l1.72,2.62.04-1.92-.73-1-1.04.3ZM50.59,73.7l-.04-.42-1.08-.12.04.42.69.58.39-.46ZM55.91,71.1l-.07-.85-.85.07-.39.46.23.19.04.42.65.16.39-.46ZM58.88,68.49l-.04-.42-.85.07-.19.23.04.42.85-.07.19-.23ZM57.41,71.18l.11,1.27.92.77,5.32-2.6-5.39-.6-.97,1.15ZM55.08,76.29l.31-1.31-.23-.19-.65-.16-.77.92.11,1.27,1.23-.53ZM63.47,64.89l.07.85.88.35.77-.92-1.11-.54-.62.27ZM64.42,68.43l-1.15-.97-1.08-.12.38,1.89,1.5.08.35-.88ZM59.96,78.43l2.16.24-1.19-1.39-1.81-1.12-.3-1.04-1.58-.93,1.26,2.24.42-.04,1.03,2.04ZM57.38,78.23l-.69-.58-1.23.53.3,1.04.65.16.97-1.15ZM62.29,73.31l.34,1.46,1.69-.15-.05,1.92,1.12-1.81-3.11-1.44ZM66.5,70.17l-.12,1.08,3.89.51-.04-.42-3.11-1.44-.62.27ZM68.55,76.61l1.09-2.23-1.46-2.01-.42.04-.23-.19-1.08-.12-.54,1.11,2.64,3.4ZM59.76,81l2.04,1.32-.53-1.23-.69-.58-.81.5ZM71.46,70.8v2.35s1.25,2.24,1.25,2.24l1.04-.3.66-2.19-1.46-2.01-1.5-.08ZM63.96,80.21l-.42.04-.16.65.69.58.81-.5-.92-.77ZM63.63,86.22l-1.11-.54,1.43-3.11-3.31,1.14,1.49,2.43,1.5.08ZM74.12,69.5l2.22,3.43.61,2.08-1.74,2.07-5.86,1.37-.31,1.31,1,1.62,2.7-.88-.3-1.04,1-.73,2.07,1.74,2.31-.42.35-.88-.5-.81-.81.5-.69-.58,1.78-4-.3-1.04.89-2-4.42-1.75ZM68.28,78.34l-.85.07-.12,1.08.69.58.28-1.73ZM67.84,83.07l1.04-.3.46.39,3.58-.53-.07-.85-5.97.1-.51,1.54.46.39.85-.07.16-.65ZM67.98,87.12l-.5-.81.12-1.08-1.11-.54-1.27.11-2.09,2.96.46.39,3.81-.33.58-.69ZM70.1,84.58l-.08,1.5-1,.73.07.85.85-.07,1.55-1.84-.15-1.69-1.23.53ZM96.08,120.51l.2-2.58,1.39-1.19-1.15-.97-1.43.76.23.19-.88-.35-.38-1.89.62-.27.28-1.73-.88-.35-1,.73-.46-.39.19-.23-.92-.77.58-.69-.27-.62,2.13-2.53,1.11.54.39-.46-.07-.85-.65-.16.39-.46-.34-1.46-1.04.3-.97,1.15-.69-.58-.07-.85,1-.73-.11-1.27-1.15-.97.74-1.34-.54,1.11,2.3,1.93.39-.46-.3-1.04-.92-.77-.19-2.12,1.12-1.81,1.27-.11,1.2-.96,1.08.12.15,1.69-.19.23-.42.04.04.42.23.19,1.04-.3.73,1-1.71,4.85.62-.27-.19.23-.16.65,1.04-.3.19-.23-.04-.42-.23-.19-.42.04,1.97-1.88.85-.07,2.46,1.28.42,2.31,1.5.08.16-.65.85-.07.46.39,1.85-.8-.3-1.04-7.99-3.57-.65-2.5,1.4-3.54-.53-1.23-1.5-.08-1.2.96-2.3-4.28-2.01,1.46-2.07-1.74-.42.04.16-.65,1.43-.76.7-1.77-.23-.19-.04-.42-.46-.39,1.66-.57-1.11-.54-1,.73-1.42-1.58-2.34-2.36-.07-3.2-1.15-.97.74-1.35-1.31-.31-1,.73-.42.04-.92-.77-.57-1.66-.74,1.34.88,2.7-3.7,1.6.69.58,4.27.05.92.77-8.51.32-.31,1.31-2.16,2.11,1.41,3.93,2.73-.45,1.35.74-3.7,1.6.3,1.04-1.09,2.23-3.43,2.22-1.08-.12-1.84-1.55.12-1.08,1.04-.3.58-.69-.07-.85-2.93.68-.19-2.12-.23-.19-1.46.34-.58.69-.85.07-.35.88,7.41,6.61.58-.69,1.66-.57-.31,1.31,1.64,4.12,1.2-.96-1.11-2.89.35-.88-.38-1.89,2.09-2.96,1.92.04.74-1.35.46.39,1.97-1.88.47-1.96-.53-1.23-1.08-.12-.23-.19,1.2-3.31,1.85-.8,1,1.62-.54,1.11-.85.07-.39.46,6.85.25.19-.23.5.81-.81.5-.54,1.11.23.19-.77.92.07.85-.39.46-3.39.3-1.78,1.65,1.15.97.57,1.66,1.11.54,1.04-.3.77-.92-.04-.42,1.08.12.77-.92-.61-2.08,1-.73.16-.65,1.49,2.43v2.35s-1.36,1.61-1.36,1.61l-4.24.37-.74,1.35,1.42,1.58,1.08.12-1.66.57-2.07-1.74-1.23.53-.74,1.34-1.23.54-.5-.81,1.2-3.31-3.78.76-.27-.62-.85.07-.16.65.88.35.77,1.43-.12,1.08.5.81.65.16.1,3.62,3.25-4.34,3.23.36-.39.46.04.42-1.5-.08-1.93,2.3,1.03,2.04-.16.65-1.2.96-.31,1.31,1.73.28,1.35-1.61.42-.04.96,1.2-.08,1.5-1.62,1,1.11.54,1.43-.76.76,1.43-.93,1.58-.23-.19-.62.27-1.31-.31-1.23.53-1.15-.97-1,.73.5.81,1.11.54-.51,3.89-1.5-.08-.51,1.54,3.05-1.76.04-1.92.62-.27-.3-1.04-.88-.35.77-.92,1.31.31,1-.73-1.12,1.81.45,2.73.69.58.58-.69.08-1.5.39-.46,1.11.54.58-.69-.3-1.04.62-.27.65.16.38,1.89-.62.27-.89,2-2.66,1.3-.74,1.34,2.27-.84,1.65,1.78,2.5-.65.35-.88,1.04-.3.07.85.85-.07.77-.92ZM78.83,76.99l-.16.65.69.58.42-.04-.53-1.23-.42.04ZM73.14,87.52l.27.62.65.16.77-.92-.07-.85-.65-.16-.81.5-.16.65ZM85.76,87.91l.88.35.81-.5.16-.65-1.11-.54-1,.73.27.62ZM108.32,65.23l-.54,1.11.3,1.04,2.2-1.69-.5-.81-1.46.34ZM110.94,63.51l-.16.65.69.58.42-.04.39-.46-.92-.77-.42.04ZM122.05,92.84l.39-.46,1.46-.34.58-.69-4.04.14-2.03-3.66-.4,5.16-.77.92-1.25-4.59,1.05-2.65-.34-1.46-3.22-2.71-3.93,1.41.26,2.97-.74,1.35-1.6-3.7-3.31-1.2-2.64-3.4.58-.69-.27-.62.54-1.11,2.31-.42-.12,1.08.92.77,1.04-.3-.68-2.93,2.31-.42-.34-1.46-.69-.58-.07-.85-1.11-.54-.54,1.11-.81.5-2.62,1.72-.82,2.85-2.01,1.46.69.58.57,1.66-.19.23-1.11-.54-4.12,1.64.96,1.2,5.89-.94,2.27,1.51.65,2.5,1.58.93-.39.46,1.88,1.97,1.96.47,1.23-.53.12-1.08.19-.23,3.54,1.4.57,1.66-1.58,1.42-.92-.77-.07-.85-.88-.35-.33,6,1.84,1.55.39-.46.42-.04,2.55-2.57,1.73.28,2.66-1.3.69.58.42-.04.31-1.31-.73-1,.19-.23-.04-.42ZM74.13,113.47l2.92,1.67.42-.04.19-.23,2.84,3.17.65.16.62-.27-2.87-5.94.31-1.31-1.58-.93-1.35,1.61.88.35.81-.5.23.19-1.62,1-.23-.19-.39.46-.04-.42-.19.23-1.08-.12-.69-.58.16-.65-.65-.16-.62.27-.59,3.04,1.08.12.77-.92ZM118.2,58.61l.04.42.46.39.65.16.19-.23-.04-.42-.23-.19-1.08-.12ZM108.92,69.66l.37,4.24.69.58,2.62-1.72-.3-1.04-3.19-2.28-.19.23ZM113.59,66.91l-2.66,1.3-.28,1.73.97-1.15,1.38,1.16,1.73.28-1.14-3.31ZM99.4,85.22l-1.11-.54-2.01,1.46.27.62.88.35,1.81-1.23.16-.65ZM121.86,56.58l.27.62,1.04-.3.97-1.15.88.35,1.04-.3-2.46-1.28-1.74,2.07ZM80.65,107.56l1.46-.34-.73-1-.88-.35.15,1.69ZM119.84,62.73l-.73-1-1.27.11.04.42,1.19,1.39.77-.92ZM68.78,123.11l1.32-2.04-1.08-.12-.19.23-.42.04-1,.73.3,1.04,1.08.12ZM122.46,61.01l.39-.46-1.15-.97-1.27.11.53,1.23,1.54.51-.04-.42ZM116.75,64.07l-.58.69.07.85,1.55-1.84-1.04.3ZM73.84,117.55l.04-1.92-2.36,2.34.5.81.85-.07.97-1.15ZM57.38,136.7l-.3-1.04-.42.04-.35.88.69.58.39-.46ZM116.29,66.03l-1.32,2.04,2.01-1.46-.69-.58ZM80.02,112.52l2.43-1.49.7-1.77-1.34-.74-1.58,1.42-.2,2.58ZM113.24,77.61l-.5-.81-1.08-.12-.46-.39-.42.04-.3-1.04-1.04.3-.12,1.08,3.34,1.63.58-.69ZM102.12,87.12l-1.04.3-.58.69-.88-.35-.81.5-.66,2.19.88.35.77-.92,3.34,1.63-.56-4.01.62-.27-.07-.85-.65-.16-.35.88ZM63.67,132.95l-.3-1.04-1.66.57-.35.88.27.62.85-.07,1.2-.96ZM90.19,99.47l1,1.62-.81.5-1.92-.04,1.74-2.07ZM120.83,64.35l.04.42-2.04,1.03-.2,2.58,4.48-4.87-2.27.84ZM68.42,126.34l1.61,1.35.85-.07,1.84,1.55,7.45-7.48.24-2.15-4.79,6.18-1.27.11-1.15-.97.54-1.11-1.81-1.12-3.52,3.72ZM76,117.78l.27.62,1.04-.3.16-.65-.92-.77-.54,1.11ZM115.88,71.19l.42-.04.77-.92-.04-.42-.65-.16-.77.92.27.62ZM115.22,73.38l-1.34-.74-.58.69.07.85.65.16.5.81-.62,2.62.8,1.85.42-.04.19-.23-.1-5.97ZM110.73,80.6l-.27-.62-.65-.16-.81.5.04.42.92.77.42-.04.35-.88ZM60.37,139.21l1.08.12,1.35-1.61-.23-.19-.42.04-.39.46-1.46.34.07.85ZM93.58,99.17l-.74,1.35.74-1.35ZM126.08,60.9l-.16.65.46.39.85-.07-.07-.85-.46-.39-.19.23-.42.04ZM128.44,58.56l1.92.04,1-.73-.04-.42-.46-.39-2.43,1.49ZM75.94,122.06l.88.35-.04-.42-.73-1-.39.46.27.62ZM132.15,54.61l-.12,1.08.85-.07.12-1.08-.85.07ZM61.41,138.91l.04.42-.23-.19.19-.23ZM60.63,142.18l-.27-.62-.46-.39-1,.73.69.58.85-.07.19-.23ZM126.3,63.45l-1.27.11-.77.92,2.64,5.75.56-5.81-1.15-.97ZM70.14,131.32l.16-.65-.23-.19-.85.07.04.42-.19.23,1.08.12ZM96.53,101.26l-1.62,1,1.46,2.01.23.19.77-.92-.06-5.54-1.58,1.42.8,1.85ZM118.03,73.77l-1,.73,1.11.54,1-.73-1.11-.54ZM123.08,70.56l-2.12.19,1.58.93,1.86-3.15-1.46.34.15,1.69ZM123.58,83.53l-.85.07-2.27-1.51-.42-2.31-1.42-1.58.2-2.58-2.7.88.45,2.73,1.27-.11.73,1-1.74,2.07.42,2.31,1.11.54.58-.69-.5-.81.58-.69.85-.07,3.38,2.05,1-.73,2.23,1.09,1.75-4.42-4.67,2.76ZM69.39,135.01l1.66-.57.35-.88-1.34-.74-.62.27-.54,1.11.5.81ZM128.69,63.88l.07.85.42-.04.23.19.19-.23-.04-.42-.88-.35ZM107.55,100.3l1.77.7,1.19,1.39,1.73.28,1-.73.57,1.66.42-.04.19-.23-.07-.85-.73-1,.19-.23-1.96-.47-.5-.81-.85.07-.23-.19-.19.23-2.19-.66-.96-1.2-.22-2.54-1.84-1.55-.54,1.11-.46-.39-.42.04-.12,1.08-.85.07-.2,2.58,1.54.51,1-.73-.27-.62.58-.69,1.99,3.24-1.73-.28,1.23,1.81.81-.5.12-1.08ZM68.42,138.51l-.04-.42-.65-.16-.58.69.04.42,1.23-.53ZM125.19,72.72l-1.11-.54-3.17,2.84,2.23,1.09,2.01-1.46-.04-.42.19-.23-.11-1.27ZM81.98,125.16l-1.42-1.58-2.74,2.8.88.35,1.78-1.65,1.5.08ZM85.98,124.59l-.65-2.5-2.77.03,3.03,2.94.39-.46ZM97.25,106.96l.08-1.5-.42.04-.54,1.11.88.35ZM128.29,69.03l-.16.65.27.62.65.16,1.2-.96.12-1.08-1.08-.12-1,.73ZM93.77,111.11l1.73.28,1.49,2.43.65.16.39-.46.73,1,.65.16,1.07,2.47,2.81.39-6.1-6.3,1.43-.76.23.19,3.28-1.57-.47,1.96,2.78-2.38-.04-.42,1.43-.76-6.7-.91-1.38-1.16.38,1.89-.39.46-.12,1.08-3.86,2.26ZM74.21,133.95l.88.35,1.81-1.23-.15-1.69-1.12,1.81-.85.07-.58.69ZM108.88,93.57l.5.81.46.39.97-1.15-.5-.81-1.08-.12-.35.88ZM127.81,73.34l-1.11-.54-.42.04-.39.46.07,3.2.23.19.42-.04,1.2-3.31ZM66.55,146.35l.16-.65-.23-.19-1.08-.12.07.85,1.08.12ZM126.63,79.42l.31-1.31-1.73-.28-3.08,1.34.54,1.23,2.19.66,1.78-1.65ZM100.56,105.82l1.04-.3.58-.69-.69-.58-1,.73.07.85ZM82.89,128.28l-.04-.42-.23-.19-1.08-.12-.58.69.88.35,1.04-.3ZM131.98,69.78l-.35.88.92.77.39-.46.08-1.5-1.04.3ZM115.01,90.47l-.19.23-.04-.42.23.19ZM120.38,85.95l.19-.23-.65-.16-.97,1.15,1.46-.34-.04-.42ZM81.11,132.28l-1,.73.92.77,1.73.28,1.58-1.42-2.93.68-.3-1.04ZM74.91,144.34l-.11-1.27-.73-1-1.31-.31-.54,1.11.69.58.85-.07,1.15.97ZM89.87,125.11l-.92-.77-.85.07-.58.69h2.35ZM85.66,128.25l-1,.73-.35.88.23.19.42-.04.58-.69.12-1.08ZM114.02,98.67l-.19.23-.23-.19.42-.04ZM106.26,114.92l1.32-2.04-3.61-2.25.15,1.69,1.92.04.23.19v2.35ZM73.61,151.5l.16-.65-.5-.81-.27-.62-.39.46.15,1.69.85-.07ZM110.68,106.85l-.65-.16-.81.5-.16.65.53,1.23,4.27.05-.04-.42-3.15-1.86ZM111.42,115.33l1.24-2.88-1.95-2.82-1.69.15-.74,1.35,2.53,2.13.61,2.08ZM102.82,121.84l-.53-1.23-1.15-.97-1,.73,2.69,1.47ZM104.57,127.24l-.96-1.2,1.55-1.84.28-1.73-4.16,1.22.07.85.92.77.57,1.66,1.73.28ZM106.52,120.24l-.92-.77-1,.73,1.15.97.85-.07-.07-.85ZM115.49,108.14l1.14,5.66,1.46-.34,1.05-2.65-1.92-2.39-1.73-.28ZM123.15,120.06l.31-1.31-.5-.81-1.04.3-.88-.35,2.33-5.11-.53-1.23,1.47-2.69-5.34-2.52.61,2.08,1.15.97,1.41,3.93-7.06,4.67-2.81-.39.95,3.54,3.35-.72-.34-1.46,1.62-1,2.15,2.59,3.16-.49ZM111.26,118.33l-.3-1.04-.85.07-.31,1.31.73,1,.74-1.35ZM116.55,122.77l-.07-.85-1.73-.28-1.62,1-4.12-.71-.58.69.57,1.66.85-.07,1.58-1.42.92.77,4.2-.79ZM110.22,128.45l-.65-2.5-1.34-.74-1.27.11-.31,1.31-.23-.19-1.16,1.38-1.04.3-.35.88.69.58,5.08-.44.58-.69ZM114.77,126.77l-.19-2.12-.42.04-1,.73-.12,1.08-.39.46.04.42-1.23.53.11,1.27,1.08.12.54-1.11.42-.04,1.16-1.38ZM125.73,117.92l-.34-1.46-.88-.35-.16.65.27.62,1.11.54ZM117.04,128.28l-.16.65.5.81.65.16.97-1.15-.27-.62-.88-.35-.81.5ZM119.93,136.99l.35-.88-.96-1.2,2.01-3.8-4.66.41-.5-.81-.85.07-.35.88,1.11.54.3,1.04.92.77-.74,1.35.73,1,2.62.62ZM124.65,120.14l.27.62.88.35,1.04-.3.58-.69-1.58-.93-1.2.96ZM124.67,135.08l.16-.65-.27-.62-.88-.35-1.2.96.27.62.88.35,1.04-.3ZM133.65,132.8l-1.42-1.58-1.66.57-4.87,5.33.11,1.27.69.58,4.6-5.95,1.31.31,1.23-.53ZM137.36,128.85l.12-1.08-1.38-1.16-1.04.3-.12,1.08.73,1,.88.35.81-.5ZM135.82,140.51l-1.49-2.43-.22-2.54-1.67,2.92,2.57,2.55.81-.5ZM130.38,144.18l-.04-.42-.46-.39-1,.73.27.62.65.16.58-.69ZM140.3,135.63l.62-.27-.04-.42-.23-.19-.65-.16-.81.5,1.11.54ZM132.94,149.08l-.53-1.23-1.54-.51,1.46,2.01.42-.04.19-.23ZM146.71,130.81l-.35.88.53,1.23.62-.27.16-.65-.07-.85-.46-.39-.42.04ZM137.96,145.44l.54-1.11-.27-.62-.42.04-.54,1.11.27.62.42-.04Z"/>
    </g>
  </g>
</svg>