<svg xmlns="http://www.w3.org/2000/svg" width="16" height="17" fill="none"><g stroke="#A0AEC0" stroke-linecap="round" stroke-linejoin="round" clip-path="url(#a)"><path d="M2 4.117c0-.354.18-.693.502-.943s.758-.39 1.212-.39h8.572c.454 0 .89.14 1.212.39.321.25.502.59.502.943v9.333c0 .354-.18.693-.502.943s-.758.39-1.212.39H3.714c-.454 0-.89-.14-1.212-.39-.321-.25-.502-.59-.502-.943V4.117ZM5 5.45h6M5 8.117h6M5 10.783h4"/></g><defs><clipPath id="a"><path fill="#fff" d="M0 .783h16v16H0z"/></clipPath></defs></svg>