<svg xmlns="http://www.w3.org/2000/svg" width="101" height="100" fill="none"><g clip-path="url(#a)"><rect width="100" height="100" x=".5" fill="#fff" rx="50"/><circle cx="50.5" cy="50" r="50" fill="url(#b)"/><path fill="url(#c)" d="M55.074 64.98h-8.602v-1.783c0-7.052 4.34-10.695 8.447-13.872 3.488-2.79 6.665-5.425 6.665-9.92 0-5.27-3.255-8.758-8.68-8.758-5.503 0-9.3 4.108-9.3 10.075h-9.843c0-11.082 8.138-18.91 19.375-18.91 11.548 0 18.523 6.665 18.523 16.973 0 8.293-5.348 12.245-9.843 15.423-3.797 2.712-6.742 5.037-6.742 8.99v1.782Zm-3.953 15.5c-3.487 0-6.277-2.79-6.277-6.123 0-3.41 2.79-6.2 6.277-6.2 3.41 0 6.278 2.79 6.278 6.2 0 3.255-2.867 6.123-6.278 6.123Z"/></g><defs><linearGradient id="b" x1="69.517" x2="-15.926" y1="10" y2="25.709" gradientUnits="userSpaceOnUse"><stop stop-color="#E5D3BE"/><stop offset="1" stop-color="#fff"/></linearGradient><linearGradient id="c" x1="70.5" x2="27.791" y1="21.879" y2="40.067" gradientUnits="userSpaceOnUse"><stop stop-color="#707883"/><stop offset="1" stop-color="#2D4C7E"/></linearGradient><clipPath id="a"><rect width="100" height="100" x=".5" fill="#fff" rx="50"/></clipPath></defs></svg>